<?xml version="1.0" encoding="utf-8"?>
<!-- Generator: Adobe Illustrator 26.3.1, SVG Export Plug-In . SVG Version: 6.00 Build 0)  -->
<svg version="1.1" id="Layer_1" xmlns="http://www.w3.org/2000/svg" xmlns:xlink="http://www.w3.org/1999/xlink" x="0px" y="0px"
	 viewBox="0 0 1997 1997" style="enable-background:new 0 0 1997 1997;" xml:space="preserve">
<style type="text/css">
	.st0{fill:#FFFFFF;}
</style>
<g id="Layer_2_00000139980482195303022340000009799287982048982169_">
	<g id="Layer_1-2">
		<path d="M1961.6,449.2c-14.8-108.9-62.9-205.7-139.7-280.5c-80.8-78.7-183.6-125.3-296.3-134.2c-15.1-1.2-1039.8-1.1-1054.5,0.1
			c-145.1,11.6-276.8,89-357.6,210.1C88.7,282,71.8,316.5,57.9,358.4c-12.5,37-20.3,75.4-23.2,114.4c-1.3,17.2-1.3,1035.6,0,1052.8
			c9.2,116.5,59.4,223.8,142.3,304.3c75.1,73,167,117.3,272.4,131.6c12.5,1.6,35.7,1.7,549.9,1.7s537.5-0.1,549.9-1.7
			c139.3-18.8,259.1-93.1,335.9-208c41.3-61.8,66.3-128.7,76.5-204.4c1.7-12.5,1.7-35.7,1.7-549.9S1963.3,461.7,1961.6,449.2z"/>
		<polygon class="st0" points="1426.6,1328.7 1426.6,1431.7 571,1431.7 571,571.4 673.5,571.4 673.5,1328.7 		"/>
		<polygon class="st0" points="1426.6,1193.5 810.5,1193.5 810.5,827.9 1097.9,827.9 1097.9,936.9 919.5,936.9 919.5,1084.6 
			1317.8,1084.6 1317.8,680.4 812.4,680.4 812.4,571.4 1426.6,571.4 		"/>
	</g>
</g>
</svg>
