<?xml version="1.0" encoding="utf-8"?>
<!-- Generator: Adobe Illustrator 27.9.0, SVG Export Plug-In . SVG Version: 6.00 Build 0)  -->
<svg version="1.1" id="Layer_1" xmlns="http://www.w3.org/2000/svg" xmlns:xlink="http://www.w3.org/1999/xlink" x="0px" y="0px"
	 viewBox="0 0 24 24" style="enable-background:new 0 0 24 24;" xml:space="preserve">
<path d="M15.7,6.3H15V4.4c0,0,0,0,0,0l0.2,0.2l0,0h0.1c0.1,0,0.2,0,0.3-0.1c0.1-0.1,0.1-0.1,0.1-0.2s0-0.1-0.1-0.2L15,3.6h0.6
	c0.1,0,0.3-0.1,0.3-0.3C16,3.2,16,3.1,16,3c0-0.1-0.1-0.1-0.3-0.1h-0.6l0.6-0.4c0.1-0.1,0.1-0.1,0.1-0.2s0-0.1-0.1-0.2
	c-0.1-0.1-0.3-0.1-0.4,0l-0.8,0.7V2.3c0-0.5-0.4-0.9-0.9-0.9h-2.9c-0.5,0-0.9,0.4-0.9,0.9v1.1C9.3,3.5,9,3.9,9,4.4v2H8.3
	c-1.2,0-2.2,1-2.2,2.2v11.3c0,1.2,1,2.2,2.2,2.2h7.4c1.2,0,2.2-1,2.2-2.2V8.5C17.9,7.3,16.9,6.3,15.7,6.3z M11,2.7L11,2.7h2
	c-0.2,0.1-0.3,0.4-0.3,0.6s0.1,0.4,0.3,0.6h-2V2.7z M10.1,5H14v1.3h-3.9V5z M8.3,8.2h7.4c0.2,0,0.3,0.1,0.3,0.3v7.7H8V8.5
	C8,8.3,8.1,8.2,8.3,8.2z"/>
</svg>
