<?xml version="1.0" encoding="utf-8"?>
<!-- Generator: Adobe Illustrator 27.9.0, SVG Export Plug-In . SVG Version: 6.00 Build 0)  -->
<svg version="1.1" id="Layer_1" xmlns="http://www.w3.org/2000/svg" xmlns:xlink="http://www.w3.org/1999/xlink" x="0px" y="0px"
	 viewBox="0 0 24 24" style="enable-background:new 0 0 24 24;" xml:space="preserve">
<path d="M17,2H7C4.2,2,2,4.2,2,7v10c0,2.8,2.2,5,5,5h10c2.8,0,5-2.2,5-5V7C22,4.2,19.8,2,17,2z M12,16.8C12,16.8,12,16.8,12,16.8
	c-2.7,0-4.8-2.1-4.8-4.8S9.3,7.2,12,7.2c2.7,0,4.8,2.1,4.8,4.8C16.8,14.6,14.7,16.8,12,16.8z M18.5,8.9C18.5,8.9,18.5,8.9,18.5,8.9
	c-0.7,0-1.2-0.5-1.2-1.2c0-0.7,0.5-1.2,1.2-1.2c0.7,0,1.2,0.5,1.2,1.2C19.7,8.4,19.2,8.9,18.5,8.9z"/>
<circle cx="12" cy="12" r="3"/>
</svg>
