<?xml version="1.0" encoding="utf-8"?>
<!-- Generator: Adobe Illustrator 27.9.0, SVG Export Plug-In . SVG Version: 6.00 Build 0)  -->
<svg version="1.1"
	 id="Layer_1" text-rendering="geometricPrecision" shape-rendering="geometricPrecision" image-rendering="optimizeQuality"
	 xmlns="http://www.w3.org/2000/svg" xmlns:xlink="http://www.w3.org/1999/xlink" x="0px" y="0px" viewBox="0 0 512 305.7"
	 style="enable-background:new 0 0 512 305.7;" xml:space="preserve">
<style type="text/css">
	.st0{fill:#FFFFFF;}
	.st1{fill-rule:evenodd;clip-rule:evenodd;fill:#141515;}
	.st2{fill-rule:evenodd;clip-rule:evenodd;fill:#DE2C1D;}
	.st3{fill-rule:evenodd;clip-rule:evenodd;fill:#ED6100;}
	.st4{fill-rule:evenodd;clip-rule:evenodd;fill:#F79F06;}
	.st5{fill:#808080;}
</style>
<g>
	<path class="st0" d="M495.4,48.2v209.3c0,8.7-3.6,16.6-9.3,22.3c-5.7,5.7-13.6,9.3-22.3,9.3H48.2c-8.7,0-16.6-3.6-22.3-9.3
		c-5.7-5.7-9.3-13.6-9.3-22.3V48.2c0-8.7,3.6-16.6,9.3-22.3c5.7-5.7,13.6-9.3,22.3-9.3h415.6v0c8.7,0,16.6,3.6,22.3,9.3
		C491.8,31.6,495.4,39.5,495.4,48.2z"/>
	<path class="st1" d="M177,224.4c-0.7-0.7-1.4-1.2-2.4-1.6c-0.9-0.4-1.9-0.6-3-0.6c-0.6,0-1.2,0-1.8,0.1c-0.6,0.1-1.2,0.3-1.8,0.5
		c-0.6,0.3-1.2,0.6-1.7,1c-0.5,0.4-1,1-1.4,1.7c-0.6-1.1-1.5-1.9-2.6-2.5c-1.1-0.6-2.3-0.9-3.7-0.9c-0.5,0-1,0-1.5,0.1
		c-0.5,0.1-1,0.2-1.5,0.4c-0.5,0.2-1,0.5-1.4,0.9c-0.5,0.4-0.9,0.8-1.2,1.4v-2.3h-4v18.9h4v-10.5c0-0.8,0.1-1.5,0.4-2.1
		s0.6-1.1,1-1.6c0.4-0.4,0.9-0.7,1.5-1c0.6-0.2,1.2-0.3,1.8-0.3c1.4,0,2.4,0.4,3.1,1.3c0.7,0.9,1.1,2.1,1.1,3.7v10.5h4v-10.5
		c0-0.8,0.1-1.5,0.4-2.1s0.6-1.1,1-1.6c0.4-0.4,0.9-0.7,1.5-1c0.6-0.2,1.2-0.3,1.8-0.3c1.4,0,2.4,0.4,3.1,1.3
		c0.7,0.9,1.1,2.1,1.1,3.7v10.5h4v-11.9c0-1.1-0.2-2.1-0.5-3C178.2,225.8,177.7,225,177,224.4L177,224.4z M365.6,240.4v0.3h0.4
		c0.1,0,0.1,0,0.2,0c0,0,0.1-0.1,0.1-0.1c0-0.1,0-0.1-0.1-0.1c0,0-0.1,0-0.2,0H365.6z M366,240c0.2,0,0.4,0.1,0.5,0.2
		s0.2,0.2,0.2,0.4c0,0.1,0,0.3-0.1,0.3c-0.1,0.1-0.2,0.2-0.4,0.2l0.5,0.6h-0.6l-0.5-0.6h-0.1v0.6h-0.5V240L366,240L366,240z
		 M365.9,242.2c0.2,0,0.4,0,0.5-0.1c0.2-0.1,0.3-0.2,0.4-0.3c0.1-0.1,0.2-0.3,0.3-0.4c0.1-0.2,0.1-0.4,0.1-0.5c0-0.2,0-0.4-0.1-0.5
		c-0.1-0.2-0.2-0.3-0.3-0.4c-0.1-0.1-0.3-0.2-0.4-0.3c-0.2-0.1-0.4-0.1-0.5-0.1c-0.2,0-0.4,0-0.6,0.1c-0.2,0.1-0.3,0.2-0.4,0.3
		c-0.1,0.1-0.2,0.3-0.3,0.4c-0.1,0.2-0.1,0.4-0.1,0.5c0,0.2,0,0.4,0.1,0.5c0.1,0.2,0.2,0.3,0.3,0.4c0.1,0.1,0.3,0.2,0.4,0.3
		S365.7,242.2,365.9,242.2z M365.9,238.9c0.3,0,0.5,0.1,0.8,0.2c0.2,0.1,0.5,0.2,0.6,0.4c0.2,0.2,0.3,0.4,0.4,0.6
		c0.1,0.2,0.2,0.5,0.2,0.8c0,0.3-0.1,0.5-0.2,0.7c-0.1,0.2-0.2,0.4-0.4,0.6c-0.2,0.2-0.4,0.3-0.6,0.4c-0.2,0.1-0.5,0.2-0.8,0.2
		c-0.3,0-0.5-0.1-0.8-0.2c-0.2-0.1-0.5-0.2-0.6-0.4c-0.2-0.2-0.3-0.4-0.4-0.6c-0.1-0.2-0.2-0.5-0.2-0.7c0-0.3,0.1-0.5,0.2-0.8
		c0.1-0.2,0.2-0.4,0.4-0.6c0.2-0.2,0.4-0.3,0.6-0.4C365.3,239,365.6,238.9,365.9,238.9z M286.2,227.8c0.5-0.5,1.2-0.9,1.9-1.2
		s1.5-0.4,2.4-0.4c0.9,0,1.8,0.1,2.6,0.4c0.8,0.3,1.4,0.7,2,1.2l2-3.3c-0.7-0.6-1.6-1.1-2.5-1.5c-1.2-0.5-2.6-0.8-4.1-0.8
		c-1.5,0-2.8,0.3-4.1,0.8s-2.3,1.2-3.2,2.1c-0.9,0.9-1.6,1.9-2.1,3.2c-0.5,1.2-0.8,2.5-0.8,4c0,1.4,0.3,2.7,0.8,4
		c0.5,1.2,1.2,2.3,2.1,3.2c0.9,0.9,2,1.6,3.2,2.1c1.2,0.5,2.6,0.8,4.1,0.8c1.5,0,2.8-0.3,4.1-0.8c0.9-0.4,1.8-0.9,2.5-1.5l-2-3.3
		c-0.6,0.5-1.2,0.9-2,1.2c-0.8,0.3-1.7,0.4-2.6,0.4c-0.8,0-1.6-0.1-2.4-0.4c-0.7-0.3-1.4-0.7-1.9-1.2c-0.5-0.5-0.9-1.2-1.2-1.9
		c-0.3-0.7-0.5-1.6-0.5-2.5c0-0.9,0.2-1.7,0.5-2.5C285.3,229,285.7,228.4,286.2,227.8L286.2,227.8z M352.9,234.6
		c-0.3,0.7-0.7,1.4-1.2,1.9c-0.5,0.5-1.1,1-1.8,1.3c-0.7,0.3-1.5,0.5-2.3,0.5c-0.9,0-1.7-0.2-2.4-0.5c-0.7-0.3-1.3-0.8-1.8-1.3
		c-0.5-0.5-0.9-1.2-1.1-1.9c-0.3-0.7-0.4-1.5-0.4-2.4c0-0.8,0.1-1.6,0.4-2.4c0.3-0.7,0.6-1.4,1.1-1.9c0.5-0.5,1.1-1,1.8-1.3
		c0.7-0.3,1.5-0.5,2.4-0.5c0.9,0,1.6,0.2,2.3,0.5c0.7,0.3,1.3,0.7,1.8,1.3c0.5,0.5,0.9,1.2,1.2,1.9c0.3,0.7,0.4,1.5,0.4,2.4
		C353.3,233.1,353.1,233.9,352.9,234.6L352.9,234.6z M353,215.1v10c-0.7-0.8-1.5-1.5-2.5-2c-1-0.5-2.1-0.8-3.5-0.8
		c-1.3,0-2.6,0.2-3.7,0.7c-1.1,0.5-2.1,1.2-3,2.1c-0.9,0.9-1.5,1.9-2,3.2c-0.5,1.2-0.7,2.6-0.7,4s0.2,2.8,0.7,4
		c0.5,1.2,1.2,2.3,2,3.2c0.9,0.9,1.9,1.6,3,2.1c1.1,0.5,2.4,0.7,3.7,0.7c1.4,0,2.5-0.3,3.5-0.8c1-0.5,1.8-1.2,2.5-2v2.3h4.1v-26.6
		H353z M333.7,222.3c-1.2,0-2.2,0.2-3.1,0.6c-0.9,0.4-1.7,1.4-2.4,2.3v-2.5h-3.8v18.9h3.8v-10.4c0-0.8,0.1-1.5,0.3-2.2
		c0.2-0.6,0.5-1.2,0.9-1.6c0.4-0.4,0.9-0.8,1.4-1c0.6-0.2,1.2-0.3,1.8-0.3c0.5,0,1,0.1,1.6,0.2c0.3,0.1,0.6,0.1,0.8,0.2l1.2-4
		c-0.3-0.1-0.7-0.2-1-0.3C334.9,222.3,334.4,222.3,333.7,222.3L333.7,222.3z M276.3,222.3c-1.2,0-2.2,0.2-3.1,0.6
		c-0.9,0.4-1.7,1.4-2.4,2.3v-2.5h-3.7v18.9h3.8v-10.4c0-0.8,0.1-1.5,0.3-2.2c0.2-0.6,0.5-1.2,0.9-1.6c0.4-0.4,0.9-0.8,1.4-1
		c0.6-0.2,1.2-0.3,1.8-0.3c0.5,0,1,0.1,1.6,0.2c0.3,0.1,0.6,0.1,0.8,0.2l1.2-4c-0.3-0.1-0.7-0.2-1-0.3
		C277.5,222.3,277,222.3,276.3,222.3L276.3,222.3z M239,237.9c-0.7,0.3-1.3,0.4-2,0.4c-0.4,0-0.8-0.1-1.2-0.2
		c-0.4-0.1-0.7-0.3-0.9-0.6c-0.3-0.3-0.5-0.6-0.6-1.1c-0.2-0.4-0.2-1-0.2-1.6v-8.2h6.6v-3.8h-6.6V217h-4.1v5.7h-3.8v3.8h3.8v8.3
		c0,2.5,0.6,4.4,1.8,5.6c1.2,1.2,2.9,1.8,5,1.8c1.2,0,2.3-0.2,3.2-0.6c0.6-0.2,1.2-0.5,1.8-0.8l-1.4-3.5
		C239.9,237.5,239.5,237.7,239,237.9L239,237.9z M314.7,234.6c-0.3,0.7-0.7,1.4-1.2,1.9c-0.5,0.5-1.1,1-1.8,1.3
		c-0.7,0.3-1.5,0.5-2.3,0.5c-0.9,0-1.7-0.2-2.4-0.5c-0.7-0.3-1.3-0.8-1.8-1.3c-0.5-0.5-0.9-1.2-1.1-1.9c-0.3-0.7-0.4-1.5-0.4-2.4
		c0-0.8,0.1-1.6,0.4-2.4c0.3-0.7,0.6-1.4,1.1-1.9c0.5-0.5,1.1-1,1.8-1.3c0.7-0.3,1.5-0.5,2.4-0.5c0.9,0,1.6,0.2,2.3,0.5
		c0.7,0.3,1.3,0.7,1.8,1.3c0.5,0.5,0.9,1.2,1.2,1.9c0.3,0.7,0.4,1.5,0.4,2.4C315.1,233.1,315,233.9,314.7,234.6L314.7,234.6z
		 M314.9,225c-0.7-0.8-1.5-1.5-2.4-2c-1-0.5-2.1-0.8-3.5-0.8c-1.3,0-2.6,0.2-3.7,0.7c-1.1,0.5-2.1,1.2-3,2.1c-0.9,0.9-1.5,1.9-2,3.2
		c-0.5,1.2-0.7,2.6-0.7,4s0.2,2.8,0.7,4c0.5,1.2,1.2,2.3,2,3.2c0.9,0.9,1.9,1.6,3,2.1c1.1,0.5,2.4,0.7,3.7,0.7
		c1.4,0,2.5-0.3,3.5-0.8c1-0.5,1.8-1.2,2.4-2v2.3h4.1v-18.9h-4.1V225z M248.4,230.6c0.1-0.7,0.3-1.3,0.6-1.9c0.3-0.6,0.6-1.1,1-1.5
		c0.4-0.4,0.9-0.7,1.5-1c0.6-0.2,1.2-0.3,2-0.3c1.3,0,2.4,0.4,3.2,1.2c0.8,0.8,1.4,2,1.6,3.4H248.4z M260,225
		c-0.8-0.9-1.7-1.6-2.8-2c-1.1-0.5-2.3-0.7-3.6-0.7c-1.4,0-2.7,0.2-3.8,0.7c-1.2,0.5-2.1,1.2-3,2c-0.8,0.9-1.5,1.9-1.9,3.2
		c-0.5,1.2-0.7,2.6-0.7,4.1c0,1.5,0.2,2.9,0.7,4.1c0.5,1.2,1.1,2.3,2,3.1s1.9,1.5,3.1,2c1.2,0.5,2.5,0.7,3.9,0.7
		c1.4,0,2.8-0.2,4.1-0.6c1.3-0.4,2.5-1.1,3.7-2.1l-2.1-2.9c-0.8,0.6-1.7,1.1-2.6,1.5c-1,0.4-1.9,0.5-2.9,0.5c-0.7,0-1.3-0.1-1.9-0.3
		c-0.6-0.2-1.2-0.5-1.7-0.9c-0.5-0.4-0.9-0.9-1.3-1.5c-0.4-0.6-0.6-1.3-0.7-2.2h14c0-0.2,0-0.5,0.1-0.8c0-0.3,0-0.5,0-0.8
		c0-1.5-0.2-2.8-0.7-4C261.4,226.9,260.8,225.9,260,225L260,225z M221.3,232.2c-1.2-0.9-2.8-1.5-4.8-1.8l-2-0.3
		c-0.4-0.1-0.8-0.1-1.2-0.2c-0.4-0.1-0.7-0.2-1-0.3c-0.3-0.1-0.5-0.3-0.7-0.6c-0.2-0.2-0.2-0.5-0.2-0.8c0-0.7,0.3-1.2,0.9-1.6
		c0.6-0.4,1.5-0.6,2.6-0.6c0.6,0,1.2,0.1,1.7,0.2c0.6,0.1,1.1,0.2,1.6,0.4c0.5,0.2,1,0.3,1.4,0.5c0.4,0.2,0.8,0.4,1.1,0.5l1.8-3.2
		c-1-0.6-2.1-1.1-3.5-1.5c-1.3-0.3-2.7-0.5-4.2-0.5c-1.2,0-2.3,0.1-3.3,0.4c-1,0.3-1.8,0.7-2.5,1.2c-0.7,0.5-1.2,1.2-1.6,1.9
		c-0.4,0.8-0.5,1.6-0.5,2.5c0,1.5,0.5,2.8,1.6,3.7c1.1,0.9,2.7,1.6,4.8,1.8l2,0.3c1.1,0.2,2,0.4,2.5,0.8c0.5,0.3,0.8,0.8,0.8,1.3
		c0,0.7-0.4,1.3-1.1,1.7c-0.7,0.4-1.8,0.6-3.2,0.6c-0.8,0-1.5-0.1-2.1-0.2c-0.6-0.1-1.2-0.2-1.7-0.4c-0.5-0.2-1-0.4-1.4-0.6
		c-0.4-0.2-0.8-0.5-1.1-0.7l-1.9,3.1c0.7,0.5,1.4,0.9,2.2,1.2c0.8,0.3,1.5,0.6,2.2,0.7c0.7,0.2,1.4,0.3,2.1,0.4
		c0.6,0.1,1.2,0.1,1.7,0.1c1.4,0,2.6-0.2,3.6-0.5c1.1-0.3,2-0.7,2.7-1.3c0.7-0.5,1.3-1.2,1.7-2c0.4-0.8,0.6-1.6,0.6-2.5
		C223.1,234.3,222.5,233.1,221.3,232.2L221.3,232.2z M198.1,234.6c-0.3,0.7-0.7,1.4-1.2,1.9c-0.5,0.5-1.1,1-1.8,1.3
		c-0.7,0.3-1.5,0.5-2.3,0.5c-0.9,0-1.7-0.2-2.4-0.5c-0.7-0.3-1.3-0.8-1.8-1.3c-0.5-0.5-0.9-1.2-1.1-1.9c-0.3-0.7-0.4-1.5-0.4-2.4
		c0-0.8,0.1-1.6,0.4-2.4c0.3-0.7,0.6-1.4,1.1-1.9c0.5-0.5,1.1-1,1.8-1.3c0.7-0.3,1.5-0.5,2.4-0.5c0.9,0,1.6,0.2,2.3,0.5
		c0.7,0.3,1.3,0.7,1.8,1.3c0.5,0.5,0.9,1.2,1.2,1.9c0.3,0.7,0.4,1.5,0.4,2.4C198.5,233.1,198.3,233.9,198.1,234.6L198.1,234.6z
		 M198.2,225c-0.7-0.8-1.5-1.5-2.5-2c-1-0.5-2.1-0.8-3.5-0.8c-1.3,0-2.6,0.2-3.7,0.7c-1.1,0.5-2.1,1.2-3,2.1c-0.9,0.9-1.5,1.9-2,3.2
		c-0.5,1.2-0.7,2.6-0.7,4c0,1.4,0.2,2.8,0.7,4c0.5,1.2,1.2,2.3,2,3.2c0.9,0.9,1.9,1.6,3,2.1c1.1,0.5,2.4,0.7,3.7,0.7
		c1.4,0,2.5-0.3,3.5-0.8c1-0.5,1.8-1.2,2.5-2v2.3h4.1v-18.9h-4.1V225z"/>
	<path class="st2" d="M225.9,134.3c0-22.7,10.6-42.9,27.1-55.9c-12.2-9.6-27.5-15.4-44.3-15.4c-39.4,0-71.3,31.9-71.3,71.3
		c0,39.4,31.9,71.3,71.3,71.3c16.7,0,32.1-5.8,44.3-15.4C236.5,177.1,225.9,156.9,225.9,134.3L225.9,134.3z"/>
	<path class="st3" d="M225.9,134.3c0,22.7,10.6,42.9,27.1,55.9c16.5-13.1,27.1-33.3,27.1-55.9S269.5,91.4,253,78.3
		C236.5,91.4,225.9,111.6,225.9,134.3z"/>
	<path class="st4" d="M297.2,62.9c-16.7,0-32.1,5.8-44.3,15.4c16.5,13.1,27.1,33.3,27.1,55.9c0,22.7-10.6,42.9-27.1,55.9
		c12.2,9.6,27.5,15.4,44.3,15.4c39.4,0,71.3-31.9,71.3-71.3S336.6,62.9,297.2,62.9L297.2,62.9z M373.6,175.4v-3l-1,2.6h-1.1l-1-2.6
		v3h-1v-4.4h1.5l1.1,2.8l1.1-2.8h1.5v4.4H373.6L373.6,175.4z M366.3,175.4V172h-1.4v-0.9h3.8v0.9h-1.4v3.4H366.3L366.3,175.4z"/>
	<path class="st5" d="M497.9,14.1C489.1,5.4,477.1,0,463.8,0H48.2c-13.3,0-25.3,5.4-34,14.1C5.4,22.9,0,34.9,0,48.2v209.3
		c0,13.3,5.4,25.3,14.1,34c8.7,8.7,20.8,14.1,34,14.1h415.6c13.3,0,25.3-5.4,34-14.1c8.7-8.7,14.1-20.8,14.1-34V48.2
		C512,34.9,506.6,22.9,497.9,14.1z M495.4,257.5c0,8.7-3.6,16.6-9.3,22.3c-5.7,5.7-13.6,9.3-22.3,9.3H48.2c-8.7,0-16.6-3.6-22.3-9.3
		c-5.7-5.7-9.3-13.6-9.3-22.3V48.2c0-8.7,3.6-16.6,9.3-22.3c5.7-5.7,13.6-9.3,22.3-9.3h415.6v0c8.7,0,16.6,3.6,22.3,9.3
		c5.7,5.7,9.3,13.6,9.3,22.3V257.5z"/>
</g>
</svg>
