<?xml version="1.0" encoding="utf-8"?>
<!-- Generator: Adobe Illustrator 27.9.0, SVG Export Plug-In . SVG Version: 6.00 Build 0)  -->
<svg version="1.1" id="Layer_1" xmlns="http://www.w3.org/2000/svg" xmlns:xlink="http://www.w3.org/1999/xlink" x="0px" y="0px"
	 viewBox="0 0 24 24" style="enable-background:new 0 0 24 24;" xml:space="preserve">
<path d="M15.7,6.6H15V4.7c0,0,0,0,0,0l0.2,0.2l0,0h0.1c0.1,0,0.2,0,0.3-0.1c0.1-0.1,0.1-0.1,0.1-0.2s0-0.1-0.1-0.2L15,3.8h0.6
	c0.1,0,0.3-0.1,0.3-0.3C16,3.5,16,3.4,16,3.3c0-0.1-0.1-0.1-0.3-0.1h-0.6l0.6-0.4c0.1-0.1,0.1-0.1,0.1-0.2s0-0.1-0.1-0.2
	c-0.1-0.1-0.3-0.1-0.4,0L14.4,3V2.6c0-0.5-0.4-0.9-0.9-0.9h-2.9c-0.5,0-0.9,0.4-0.9,0.9v1.1C9.3,3.8,9,4.2,9,4.7v2H8.3
	c-1.2,0-2.2,1-2.2,2.2v11.3c0,1.2,1,2.2,2.2,2.2h7.4c1.2,0,2.2-1,2.2-2.2V8.8C17.9,7.5,16.9,6.6,15.7,6.6z M11,3L11,3h2
	c-0.2,0.1-0.3,0.4-0.3,0.6S12.8,4,13,4.2h-2V3z M10.1,5.3H14v1.3h-3.9V5.3z M8.3,8.5h7.4c0.2,0,0.3,0.1,0.3,0.3v2.9H8V8.8
	C8,8.6,8.1,8.5,8.3,8.5z M15.7,20.4H8.3c-0.2,0-0.3-0.1-0.3-0.3v-4.3h8v4.3C16,20.2,15.9,20.4,15.7,20.4z"/>
</svg>
