<?xml version="1.0" encoding="UTF-8"?>
<svg xmlns="http://www.w3.org/2000/svg" viewBox="0 0 42.56 21.93" xml:space="preserve">

  <defs>

    <!-- Silver metallic gradient (vertical) -->
    <linearGradient id="silverGrad" x1="0" y1="0" x2="0" y2="1">
      <stop offset="0%"   stop-color="#efefef"/>
      <stop offset="20%"  stop-color="#ffffff"/>
      <stop offset="50%"  stop-color="#c0c0c0"/>
      <stop offset="78%"  stop-color="#989898"/>
      <stop offset="100%" stop-color="#d0d0d0"/>
    </linearGradient>

    <!-- Animated sweep light (horizontal) -->
    <linearGradient id="sweepGrad" x1="0" y1="0" x2="1" y2="0" gradientUnits="objectBoundingBox">
      <stop offset="0%"   stop-color="white" stop-opacity="0"/>
      <stop offset="38%"  stop-color="white" stop-opacity="0"/>
      <stop offset="50%"  stop-color="white" stop-opacity="0.85"/>
      <stop offset="62%"  stop-color="white" stop-opacity="0"/>
      <stop offset="100%" stop-color="white" stop-opacity="0"/>
      <animateTransform
        attributeName="gradientTransform"
        type="translate"
        values="-1.6 0; 2.4 0"
        dur="3s"
        begin="0.6s"
        repeatCount="indefinite"
        calcMode="spline"
        keyTimes="0;1"
        keySplines="0.42 0 0.58 1"/>
    </linearGradient>

    <!-- Clip path: all logo shapes -->
    <clipPath id="logoClip">
      <polygon points="2.05 17.9 2.05 20.54 2.54 20.54 2.54 19.35 3.35 19.35 3.35 18.87 2.54 18.87 2.54 18.39 3.35 18.39 3.35 17.9 2.05 17.9"/>
      <path d="m6.31,19.37c.17-.06.29-.15.38-.26.08-.12.12-.26.12-.44,0-.16-.04-.31-.11-.43-.08-.12-.17-.21-.3-.26-.12-.05-.33-.08-.62-.08h-.53v2.64h.5v-1.12h.05l.59,1.12h.55l-.62-1.17Zm-.41-.43h-.16v-.54h.14c.13,0,.22,0,.28.03.05.02.09.05.12.09.03.04.04.09.04.15,0,.1-.03.17-.09.21-.06.04-.17.06-.33.06Z"/>
      <path d="m10.07,17.9h-.51l-1.02,2.64h.52l.21-.54h1.08l.21.54h.52l-1.01-2.64Zm-.61,1.6l.35-.91.35.91h-.71Z"/>
      <path d="m18.47,19.37c.17-.06.29-.15.38-.26.08-.12.12-.26.12-.44,0-.16-.04-.31-.11-.43-.08-.12-.17-.21-.3-.26-.12-.05-.33-.08-.62-.08h-.53v2.64h.5v-1.12h.05l.59,1.12h.55l-.63-1.17Zm-.41-.43h-.16v-.54h.14c.13,0,.23,0,.28.03.05.02.09.05.12.09.03.04.04.09.04.15,0,.1-.03.17-.09.21-.06.04-.17.06-.33.06Z"/>
      <path d="m22.23,17.9h-.51l-1.02,2.64h.52l.21-.54h1.08l.21.54h.52l-1.01-2.64Zm-.6,1.6l.35-.91.35.91h-.71Z"/>
      <polygon points="26.65 17.9 26.65 19.64 25.52 17.9 25.04 17.9 25.04 20.54 25.55 20.54 25.55 18.81 26.67 20.54 27.16 20.54 27.16 17.9 26.65 17.9"/>
      <polygon points="33.44 17.9 33.44 20.54 34.88 20.54 34.88 20.05 33.94 20.05 33.94 19.35 34.88 19.35 34.88 18.87 33.94 18.87 33.94 18.39 34.88 18.39 34.88 17.9 33.44 17.9"/>
      <path d="m1.94,5.68v9.81h3.1l-.02-4.22c0-1.18.95-3.15,3.06-3.15,1.9,0,2.36,1.66,2.36,3.23v4.14h3.1v-4.43c0-3.13-1.63-5.36-4.8-5.36-1.63,0-3.1.89-3.7,1.72v-1.74H1.94Z"/>
      <path d="m20.53,5.68c-2.77,0-5.57,1.95-5.57,4.92s2.8,4.9,5.57,4.9,5.57-1.93,5.57-4.9-2.81-4.92-5.57-4.92Zm0,7.28c-1.43,0-2.75-.97-2.75-2.36s1.32-2.38,2.75-2.38,2.73.95,2.73,2.38-1.35,2.36-2.73,2.36Z"/>
      <polygon points="27.09 5.68 27.09 8.17 32.65 8.17 26.86 15.45 26.9 15.45 26.86 15.49 37.83 15.45 37.83 13.03 32.07 13.03 38.07 5.68 27.09 5.68"/>
      <path d="m39.58,3.94c-.58,0-1.04.47-1.04,1.04s.47,1.04,1.04,1.04,1.04-.47,1.04-1.04-.47-1.04-1.04-1.04Zm0,1.93c-.49,0-.89-.4-.89-.89s.4-.89.89-.89.89.4.89.89-.4.89-.89.89Z"/>
      <path d="m37.38,20.61h.02c.24,0,.43-.07.57-.21.15-.14.22-.32.22-.54,0-.11-.02-.21-.06-.31-.04-.09-.11-.19-.22-.3-.04-.04-.16-.14-.35-.3-.2-.17-.33-.29-.37-.34-.03-.04-.04-.08-.04-.13s.02-.08.06-.12c.04-.04.1-.05.16-.05.14,0,.27.09.4.27l.37-.33c-.14-.16-.27-.27-.39-.33-.12-.06-.24-.09-.38-.09-.21,0-.38.07-.52.2-.14.13-.21.29-.21.47,0,.13.04.25.13.38.08.13.27.31.56.54.15.12.25.21.29.27.04.06.07.12.07.18,0,.07-.03.12-.09.17-.06.05-.13.08-.22.08-.17,0-.31-.12-.44-.35l-.42.26c.1.2.22.34.36.43.14.09.3.14.48.14Z"/>
      <path d="m30.44,20.61h.01c.22,0,.41-.04.58-.11.17-.07.36-.21.55-.4l-.34-.36c-.14.14-.28.24-.4.3-.12.05-.25.08-.4.08-.17,0-.33-.04-.47-.12-.14-.08-.25-.18-.32-.32-.08-.14-.12-.29-.12-.47,0-.25.09-.47.26-.64.17-.17.38-.26.64-.26.3,0,.57.13.81.38l.35-.33c-.15-.17-.32-.3-.52-.39-.2-.09-.41-.14-.63-.14-.26,0-.49.06-.72.19-.22.12-.39.29-.51.49-.12.2-.18.44-.18.7,0,.41.13.74.39,1,.26.26.6.39,1.01.39Z"/>
      <path d="m14.18,20.61h.02c.25,0,.47-.06.66-.16.19-.11.34-.27.46-.47.12-.21.18-.43.18-.66v-.11h-1.33v.47h.76c-.07.16-.17.27-.29.34-.12.07-.27.11-.44.11-.27,0-.49-.09-.67-.27-.18-.18-.27-.39-.27-.65s.09-.46.26-.63c.18-.17.39-.26.65-.26.3,0,.56.12.78.35l.35-.35c-.16-.17-.33-.3-.49-.37-.2-.09-.41-.13-.64-.13-.44,0-.8.15-1.07.46-.23.26-.35.56-.35.91,0,.25.06.49.19.71.12.22.29.39.51.51.21.12.45.18.72.18Z"/>
      <rect x="17.3" y="1.33" width="6.46" height="2.35"/>
      <polygon points="38.9 4.67 38.9 4.79 39.11 4.79 39.11 5.37 39.25 5.37 39.25 4.79 39.46 4.79 39.46 4.67 38.9 4.67"/>
      <polygon points="40.01 4.67 39.89 5.15 39.76 4.67 39.55 4.67 39.55 5.37 39.68 5.37 39.68 4.82 39.82 5.37 39.95 5.37 40.09 4.82 40.09 5.37 40.22 5.37 40.22 4.67 40.01 4.67"/>
    </clipPath>

  </defs>

  <!-- Silver logo: all shapes -->
  <polygon fill="url(#silverGrad)" points="2.05 17.9 2.05 20.54 2.54 20.54 2.54 19.35 3.35 19.35 3.35 18.87 2.54 18.87 2.54 18.39 3.35 18.39 3.35 17.9 2.05 17.9"/>
  <path fill="url(#silverGrad)" d="m6.31,19.37c.17-.06.29-.15.38-.26.08-.12.12-.26.12-.44,0-.16-.04-.31-.11-.43-.08-.12-.17-.21-.3-.26-.12-.05-.33-.08-.62-.08h-.53v2.64h.5v-1.12h.05l.59,1.12h.55l-.62-1.17Zm-.41-.43h-.16v-.54h.14c.13,0,.22,0,.28.03.05.02.09.05.12.09.03.04.04.09.04.15,0,.1-.03.17-.09.21-.06.04-.17.06-.33.06Z"/>
  <path fill="url(#silverGrad)" d="m10.07,17.9h-.51l-1.02,2.64h.52l.21-.54h1.08l.21.54h.52l-1.01-2.64Zm-.61,1.6l.35-.91.35.91h-.71Z"/>
  <path fill="url(#silverGrad)" d="m18.47,19.37c.17-.06.29-.15.38-.26.08-.12.12-.26.12-.44,0-.16-.04-.31-.11-.43-.08-.12-.17-.21-.3-.26-.12-.05-.33-.08-.62-.08h-.53v2.64h.5v-1.12h.05l.59,1.12h.55l-.63-1.17Zm-.41-.43h-.16v-.54h.14c.13,0,.23,0,.28.03.05.02.09.05.12.09.03.04.04.09.04.15,0,.1-.03.17-.09.21-.06.04-.17.06-.33.06Z"/>
  <path fill="url(#silverGrad)" d="m22.23,17.9h-.51l-1.02,2.64h.52l.21-.54h1.08l.21.54h.52l-1.01-2.64Zm-.6,1.6l.35-.91.35.91h-.71Z"/>
  <polygon fill="url(#silverGrad)" points="26.65 17.9 26.65 19.64 25.52 17.9 25.04 17.9 25.04 20.54 25.55 20.54 25.55 18.81 26.67 20.54 27.16 20.54 27.16 17.9 26.65 17.9"/>
  <polygon fill="url(#silverGrad)" points="33.44 17.9 33.44 20.54 34.88 20.54 34.88 20.05 33.94 20.05 33.94 19.35 34.88 19.35 34.88 18.87 33.94 18.87 33.94 18.39 34.88 18.39 34.88 17.9 33.44 17.9"/>
  <path fill="url(#silverGrad)" d="m1.94,5.68v9.81h3.1l-.02-4.22c0-1.18.95-3.15,3.06-3.15,1.9,0,2.36,1.66,2.36,3.23v4.14h3.1v-4.43c0-3.13-1.63-5.36-4.8-5.36-1.63,0-3.1.89-3.7,1.72v-1.74H1.94Z"/>
  <path fill="url(#silverGrad)" d="m20.53,5.68c-2.77,0-5.57,1.95-5.57,4.92s2.8,4.9,5.57,4.9,5.57-1.93,5.57-4.9-2.81-4.92-5.57-4.92Zm0,7.28c-1.43,0-2.75-.97-2.75-2.36s1.32-2.38,2.75-2.38,2.73.95,2.73,2.38-1.35,2.36-2.73,2.36Z"/>
  <polygon fill="url(#silverGrad)" points="27.09 5.68 27.09 8.17 32.65 8.17 26.86 15.45 26.9 15.45 26.86 15.49 37.83 15.45 37.83 13.03 32.07 13.03 38.07 5.68 27.09 5.68"/>
  <path fill="url(#silverGrad)" d="m39.58,3.94c-.58,0-1.04.47-1.04,1.04s.47,1.04,1.04,1.04,1.04-.47,1.04-1.04-.47-1.04-1.04-1.04Zm0,1.93c-.49,0-.89-.4-.89-.89s.4-.89.89-.89.89.4.89.89-.4.89-.89.89Z"/>
  <path fill="url(#silverGrad)" d="m37.38,20.61h.02c.24,0,.43-.07.57-.21.15-.14.22-.32.22-.54,0-.11-.02-.21-.06-.31-.04-.09-.11-.19-.22-.3-.04-.04-.16-.14-.35-.3-.2-.17-.33-.29-.37-.34-.03-.04-.04-.08-.04-.13s.02-.08.06-.12c.04-.04.1-.05.16-.05.14,0,.27.09.4.27l.37-.33c-.14-.16-.27-.27-.39-.33-.12-.06-.24-.09-.38-.09-.21,0-.38.07-.52.2-.14.13-.21.29-.21.47,0,.13.04.25.13.38.08.13.27.31.56.54.15.12.25.21.29.27.04.06.07.12.07.18,0,.07-.03.12-.09.17-.06.05-.13.08-.22.08-.17,0-.31-.12-.44-.35l-.42.26c.1.2.22.34.36.43.14.09.3.14.48.14Z"/>
  <path fill="url(#silverGrad)" d="m30.44,20.61h.01c.22,0,.41-.04.58-.11.17-.07.36-.21.55-.4l-.34-.36c-.14.14-.28.24-.4.3-.12.05-.25.08-.4.08-.17,0-.33-.04-.47-.12-.14-.08-.25-.18-.32-.32-.08-.14-.12-.29-.12-.47,0-.25.09-.47.26-.64.17-.17.38-.26.64-.26.3,0,.57.13.81.38l.35-.33c-.15-.17-.32-.3-.52-.39-.2-.09-.41-.14-.63-.14-.26,0-.49.06-.72.19-.22.12-.39.29-.51.49-.12.2-.18.44-.18.7,0,.41.13.74.39,1,.26.26.6.39,1.01.39Z"/>
  <path fill="url(#silverGrad)" d="m14.18,20.61h.02c.25,0,.47-.06.66-.16.19-.11.34-.27.46-.47.12-.21.18-.43.18-.66v-.11h-1.33v.47h.76c-.07.16-.17.27-.29.34-.12.07-.27.11-.44.11-.27,0-.49-.09-.67-.27-.18-.18-.27-.39-.27-.65s.09-.46.26-.63c.18-.17.39-.26.65-.26.3,0,.56.12.78.35l.35-.35c-.16-.17-.33-.3-.49-.37-.2-.09-.41-.13-.64-.13-.44,0-.8.15-1.07.46-.23.26-.35.56-.35.91,0,.25.06.49.19.71.12.22.29.39.51.51.21.12.45.18.72.18Z"/>
  <rect x="17.3" y="1.33" width="6.46" height="2.35" fill="url(#silverGrad)"/>
  <polygon fill="url(#silverGrad)" points="38.9 4.67 38.9 4.79 39.11 4.79 39.11 5.37 39.25 5.37 39.25 4.79 39.46 4.79 39.46 4.67 38.9 4.67"/>
  <polygon fill="url(#silverGrad)" points="40.01 4.67 39.89 5.15 39.76 4.67 39.55 4.67 39.55 5.37 39.68 5.37 39.68 4.82 39.82 5.37 39.95 5.37 40.09 4.82 40.09 5.37 40.22 5.37 40.22 4.67 40.01 4.67"/>

  <!-- Sweep overlay clipped precisely to all logo shapes -->
  <rect x="0" y="0" width="42.56" height="21.93" fill="url(#sweepGrad)" clip-path="url(#logoClip)"/>

</svg>
