<?xml version="1.0" encoding="utf-8"?>
<!-- Generator: Adobe Illustrator 27.9.0, SVG Export Plug-In . SVG Version: 6.00 Build 0)  -->
<svg version="1.1"
	 id="Layer_1" text-rendering="geometricPrecision" shape-rendering="geometricPrecision" image-rendering="optimizeQuality"
	 xmlns="http://www.w3.org/2000/svg" xmlns:xlink="http://www.w3.org/1999/xlink" x="0px" y="0px" viewBox="0 0 512 305.7"
	 style="enable-background:new 0 0 512 305.7;" xml:space="preserve">
<style type="text/css">
	.st0{fill:#FFFFFF;}
	.st1{fill-rule:evenodd;clip-rule:evenodd;fill:#382A8D;}
	.st2{fill-rule:evenodd;clip-rule:evenodd;fill:#1D8546;}
	.st3{fill-rule:evenodd;clip-rule:evenodd;fill:#EC6B00;}
	.st4{fill-rule:evenodd;clip-rule:evenodd;}
</style>
<path class="st0" d="M495.4,48.2v209.3c0,8.7-3.6,16.6-9.3,22.3c-5.7,5.7-13.6,9.3-22.3,9.3H48.2c-8.7,0-16.6-3.6-22.3-9.3
	c-5.7-5.7-9.3-13.6-9.3-22.3V48.2c0-8.7,3.6-16.6,9.3-22.3s13.6-9.3,22.3-9.3h415.6l0,0c8.7,0,16.6,3.6,22.3,9.3
	S495.4,39.5,495.4,48.2z"/>
<path class="st1" d="M328.8,128.9h20.3v32.2l17.5-32.2h18.6L347.7,194c0,0-3.5,5.5-7.8,8.4c-3.5,2.4-7.9,2.3-9.2,2.4
	c-7.4-0.1-16.3-0.1-16.3-0.1l4.3-15.5h7c0,0,3.2-0.3,4.4-1.9c1.2-1.5,1.8-3,1.8-5.2C331.8,178.7,328.8,128.9,328.8,128.9
	L328.8,128.9z M118.2,135.3c-2.8,6.5-11.6,5.8-11.6,5.8H96.4l3.7-13.8c0,0,9.1,0,13.6,0C118.5,127.3,120,131.1,118.2,135.3
	L118.2,135.3z M141.3,125.9c1.7-13.7-10.4-17.2-23.4-17.2H83.6l-20.3,73.9h21.8l6.8-25.1l12.2,0.1c0,0,5.1-0.3,5.2,4.5
	c0.1,5.1-3.8,14.4-3.5,20.5h22.4v-2c0,0-1.9-0.5-1.7-3.1c0.1-1.1,1.3-4.5,2.9-9.2c0.9-2,2.4-6.9,2.2-10.9c-0.2-4.9-3.3-7.2-7.7-8.8
	C137.8,145.4,141.3,125.9,141.3,125.9L141.3,125.9z M146.3,128.9h19.9l-8.2,31.5c0,0-2,7,4.5,7.6c5.2,0.4,9.1-5.8,10.3-10
	c1.7-5.5,8.1-29.1,8.1-29.1h20.5l-15.6,53.7H168l2.2-7.7c0,0-9.1,11.1-22.7,9.8c-12.1-1.2-13.1-9.9-11-20.9
	C137.5,158.5,146.3,128.9,146.3,128.9z M248.5,135.5c-2.8,7.9-10.7,7-10.7,7h-10.7l4.2-15.7c0,0,6.8,0,11.2,0
	C248.1,126.8,250.1,131.2,248.5,135.5L248.5,135.5z M271,128.2c1.7-13.7-8.7-19.5-21.8-19.5h-34.3l-20.3,73.9h21.8l6.1-22.8
	l17.4,0.1C239.9,159.9,266.8,161.1,271,128.2L271,128.2z M289.3,171.7c-3.4,0.9-7.5,1.3-8.4-1.8c-2.3-8.5,17.6-11,17.6-11
	C298.7,166.7,291.9,171,289.3,171.7L289.3,171.7z M319.4,156.1c2.6-8.9,5.9-17.4,3.3-22.1c-4.1-7.2-11.5-7.8-22.3-7.8
	c-11.9,0-26.7,2.3-31.5,18.1h19.9c0,0,1.8-6,9.3-5.6c6.6,0.3,6.2,4.9,3.8,7.4c-4.3,4.4-16.1,2-29.1,6.5c-11.4,4-15.4,19-12.9,24.9
	c2.4,5.8,6.9,6.5,12.9,7.1c9.7,1,17.1-4.4,20.6-7.6c0,3.5,0.1,5.5,0.1,5.5h20.9l-0.1-2c0,0-1.9-0.5-1.7-3.1
	C312.7,175.6,316.4,166.4,319.4,156.1L319.4,156.1z"/>
<path class="st2" d="M411.3,116.5l-23.4,81.4l43.8-40.7L411.3,116.5z"/>
<path class="st3" d="M396.3,116.5l-23.4,81.4l43.8-40.7L396.3,116.5z"/>
<path class="st4" d="M439.8,101.7c-4.4,0-8.1,3.6-8.1,8.1c0,4.4,3.6,8.1,8.1,8.1c4.4,0,8.1-3.6,8.1-8.1
	C447.9,105.3,444.3,101.7,439.8,101.7z M439.7,113.1v-6.3h1.3l1.5,4.5c0.1,0.4,0.2,0.7,0.3,0.9c0.1-0.2,0.2-0.6,0.3-1l1.5-4.4h1.1
	v6.3h-0.8v-5.3l-1.8,5.3h-0.7l-1.8-5.4v5.4H439.7z M435.5,113.1v-5.5h-2.1v-0.7h5v0.7h-2.1v5.5H435.5z M439.8,118.7
	c-4.9,0-8.9-4-8.9-8.9s4-8.9,8.9-8.9s8.9,4,8.9,8.9C448.7,114.7,444.7,118.7,439.8,118.7z"/>
<path class="st0" d="M48.2,0h415.6c13.3,0,25.3,5.4,34,14.1s14.1,20.8,14.1,34v209.3c0,13.3-5.4,25.3-14.1,34s-20.8,14.1-34,14.1
	H48.2c-13.3,0-25.3-5.4-34-14.1C5.4,282.8,0,270.8,0,257.5V48.2c0-13.3,5.4-25.3,14.1-34S34.9,0,48.2,0L48.2,0z M463.8,16.6H48.2
	c-8.7,0-16.6,3.6-22.3,9.3s-9.3,13.6-9.3,22.3v209.3c0,8.7,3.6,16.6,9.3,22.3c5.7,5.7,13.6,9.3,22.3,9.3h415.6
	c8.7,0,16.6-3.6,22.3-9.3c5.7-5.7,9.3-13.6,9.3-22.3V48.2c0-8.7-3.6-16.6-9.3-22.3C480.4,20.2,472.5,16.6,463.8,16.6L463.8,16.6z"/>
</svg>
