<?xml version="1.0" encoding="utf-8"?>
<!-- Generator: Adobe Illustrator 27.9.0, SVG Export Plug-In . SVG Version: 6.00 Build 0)  -->
<svg version="1.1" id="Layer_1" xmlns="http://www.w3.org/2000/svg" xmlns:xlink="http://www.w3.org/1999/xlink" x="0px" y="0px"
	 viewBox="0 0 24 24" style="enable-background:new 0 0 24 24;" xml:space="preserve">
<style type="text/css">
	.st0{fill:none;stroke:#000000;stroke-width:2;stroke-linecap:round;stroke-linejoin:round;}
	.st1{stroke:#000000;stroke-width:0.25;stroke-miterlimit:10;}
	.st2{fill:#FFFFFF;}
	.st3{stroke:#000000;stroke-width:1.2;stroke-linecap:round;stroke-linejoin:round;stroke-miterlimit:10;}
	.st4{stroke:#000000;stroke-width:0.1799;stroke-miterlimit:10;}
</style>
<path class="st3" d="M15.7,6.9h-1.3V4.4c0-0.2-0.1-0.3-0.3-0.3h-0.3V3.8c0-0.2-0.1-0.3-0.3-0.3c-0.1,0-0.2-0.1-0.2-0.2
	c0-0.1,0.1-0.2,0.2-0.2c0.2,0,0.3-0.1,0.3-0.3V2.3c0-0.2-0.1-0.3-0.3-0.3h-2.9c-0.2,0-0.3,0.1-0.3,0.3V4H9.9C9.7,4,9.6,4.2,9.6,4.4
	v2.6H8.3c-0.9,0-1.6,0.7-1.6,1.6v11.3c0,0.9,0.7,1.6,1.6,1.6h7.4c0.9,0,1.6-0.7,1.6-1.6V8.5C17.3,7.6,16.6,6.9,15.7,6.9z M10.9,2.6
	H13c-0.2,0.2-0.4,0.4-0.4,0.7c0,0.3,0.1,0.5,0.3,0.7h-2.1L10.9,2.6L10.9,2.6z M10.2,4.7h3.6v2.2h-3.6V4.7z M16.6,19.8
	c0,0.5-0.4,0.9-0.9,0.9H8.3c-0.5,0-0.9-0.4-0.9-0.9V8.5c0-0.5,0.4-0.9,0.9-0.9h1.6h4.2h1.6c0.5,0,0.9,0.4,0.9,0.9V19.8L16.6,19.8z"
	/>
<path class="st4" d="M14.3,3.4c-0.1,0.1-0.1,0.2,0,0.3l1,0.8c0,0,0.1,0,0.1,0c0.1,0,0.1,0,0.2-0.1c0.1-0.1,0.1-0.2,0-0.3l-0.9-0.6
	h0.9c0.1,0,0.2-0.1,0.2-0.2C16,3.1,15.9,3,15.7,3h-0.9l0.8-0.6c0.1-0.1,0.1-0.2,0-0.3c-0.1-0.1-0.2-0.1-0.3,0l-1,0.8
	c-0.1,0.1-0.1,0.2,0,0.3c0,0,0,0,0.1,0.1c0,0,0,0,0,0.1C14.3,3.2,14.3,3.3,14.3,3.4C14.3,3.3,14.3,3.3,14.3,3.4z"/>
<rect x="7.4" y="7.6" width="9.2" height="3.9"/>
<path class="st2" d="M11.1,2.7h1.9c-0.2,0.1-0.3,0.4-0.3,0.6c0,0.2,0.1,0.4,0.3,0.6H11L11.1,2.7L11.1,2.7z"/>
<rect x="10.1" y="5" class="st2" width="3.9" height="1.3"/>
</svg>
