<?xml version="1.0" encoding="utf-8"?>
<!-- Generator: Adobe Illustrator 27.9.0, SVG Export Plug-In . SVG Version: 6.00 Build 0)  -->
<svg version="1.1"
	 id="Layer_1" text-rendering="geometricPrecision" shape-rendering="geometricPrecision" image-rendering="optimizeQuality"
	 xmlns="http://www.w3.org/2000/svg" xmlns:xlink="http://www.w3.org/1999/xlink" x="0px" y="0px" viewBox="0 0 512 305.7"
	 style="enable-background:new 0 0 512 305.7;" xml:space="preserve">
<style type="text/css">
	.st0{fill:#FFFFFF;}
	.st1{fill-rule:evenodd;clip-rule:evenodd;fill:#3A3734;}
	.st2{fill-rule:evenodd;clip-rule:evenodd;fill:#716D6A;}
	.st3{fill-rule:evenodd;clip-rule:evenodd;fill:#0E8635;}
	.st4{fill-rule:evenodd;clip-rule:evenodd;fill:#E97208;}
	.st5{fill:#808080;}
</style>
<g>
	<path class="st0" d="M495.4,48.2v209.3c0,8.7-3.6,16.6-9.3,22.3c-5.7,5.7-13.6,9.3-22.3,9.3H48.2c-8.7,0-16.6-3.6-22.3-9.3
		c-5.7-5.7-9.3-13.6-9.3-22.3V48.2c0-8.7,3.6-16.6,9.3-22.3c5.7-5.7,13.6-9.3,22.3-9.3h415.6v0c8.7,0,16.6,3.6,22.3,9.3
		C491.8,31.6,495.4,39.5,495.4,48.2z"/>
	<path class="st1" d="M68.7,201.1h2.9l-2.7,11.1c-0.4,1.6-0.3,2.9,0.2,3.7c0.5,0.8,1.5,1.2,3,1.2c1.4,0,2.7-0.4,3.6-1.2
		c0.9-0.8,1.6-2.1,2-3.7l2.7-11.1h2.9l-2.7,11.4c-0.6,2.4-1.6,4.3-3.2,5.5c-1.5,1.2-3.5,1.9-5.9,1.9c-2.4,0-4.1-0.6-5-1.8
		c-0.9-1.2-1.1-3.1-0.5-5.5L68.7,201.1L68.7,201.1z M412,219.3l4.3-18.2h9.9l-0.6,2.5h-7l-1.1,4.6h7l-0.6,2.6h-7l-1.4,5.9h7
		l-0.6,2.7L412,219.3L412,219.3z M411.7,205.5c-0.6-0.7-1.4-1.3-2.2-1.6c-0.8-0.4-1.7-0.5-2.8-0.5c-1.9,0-3.7,0.6-5.2,1.9
		c-1.5,1.3-2.5,2.9-3,5c-0.5,1.9-0.3,3.6,0.6,4.9c0.9,1.3,2.2,1.9,4,1.9c1,0,2.1-0.2,3.1-0.6c1-0.4,2.1-1,3.2-1.7l-0.8,3.3
		c-0.9,0.6-1.9,1-2.9,1.3c-1,0.3-2,0.4-3.1,0.4c-1.4,0-2.6-0.2-3.6-0.7c-1-0.5-1.9-1.1-2.6-2c-0.7-0.9-1.1-1.9-1.3-3.1
		c-0.2-1.2-0.1-2.4,0.2-3.8c0.3-1.4,0.9-2.6,1.6-3.8c0.7-1.2,1.7-2.2,2.8-3.1c1.1-0.9,2.3-1.6,3.5-2c1.3-0.5,2.5-0.7,3.8-0.7
		c1,0,2,0.1,2.9,0.5c0.9,0.3,1.7,0.8,2.4,1.4L411.7,205.5z M383.6,212.1h4.9l-0.8-4.2c0-0.3-0.1-0.6-0.1-0.9c0-0.4,0-0.7,0-1.1
		c-0.2,0.4-0.4,0.8-0.6,1.1c-0.2,0.4-0.4,0.7-0.5,1L383.6,212.1L383.6,212.1z M389.9,219.3l-0.9-4.7h-7.1l-3.2,4.7h-3l13.1-19
		l4.1,19H389.9z M366,219.3l4.3-18.2h9.9l-0.6,2.5h-7l-1.1,4.5h7l-0.6,2.6h-7l-2,8.5L366,219.3L366,219.3L366,219.3z M357.5,208.8
		h0.5c1.5,0,2.6-0.2,3.2-0.5c0.6-0.4,1-1,1.2-1.9c0.2-1,0.1-1.7-0.3-2.1c-0.5-0.4-1.4-0.6-2.8-0.6h-0.5L357.5,208.8L357.5,208.8z
		 M356.7,211.1l-1.9,8.1h-2.7l4.3-18.2h4c1.2,0,2.1,0.1,2.7,0.2c0.6,0.1,1.1,0.4,1.5,0.8c0.5,0.5,0.7,1,0.9,1.7
		c0.1,0.7,0.1,1.4-0.1,2.3c-0.4,1.4-1,2.6-1.9,3.4c-0.9,0.8-2,1.3-3.4,1.5l4.1,8.3H361l-3.9-8.1L356.7,211.1L356.7,211.1z
		 M338.9,219.3l4.3-18.2h10l-0.6,2.5h-7l-1.1,4.6h7l-0.6,2.6h-7l-1.4,5.9h7l-0.6,2.7L338.9,219.3L338.9,219.3z M335.8,203.6
		l-3.8,15.7h-2.9l3.8-15.7h-4.7l0.6-2.5H341l-0.6,2.5H335.8L335.8,203.6z M306.3,219.3l4.5-19l8.6,11.1c0.2,0.3,0.5,0.6,0.7,1
		c0.2,0.4,0.5,0.8,0.7,1.2l3-12.6h2.7L322,220l-8.8-11.4c-0.2-0.3-0.5-0.6-0.7-1c-0.2-0.4-0.4-0.7-0.5-1.1l-3,12.7L306.3,219.3
		L306.3,219.3L306.3,219.3z M299.2,219.3l4.3-18.2h2.9l-4.3,18.2H299.2z M277.9,215.7l2.6-1.1c0,0.8,0.3,1.4,0.8,1.9
		c0.5,0.4,1.2,0.6,2.1,0.6c0.9,0,1.6-0.2,2.2-0.7c0.6-0.5,1-1.1,1.2-1.9c0.3-1.1-0.4-2-1.9-2.8c-0.2-0.1-0.4-0.2-0.5-0.3
		c-1.7-1-2.8-1.9-3.3-2.7c-0.5-0.8-0.5-1.8-0.3-2.9c0.4-1.5,1.1-2.7,2.4-3.6c1.2-0.9,2.6-1.4,4.2-1.4c1.3,0,2.4,0.3,3.1,0.8
		c0.8,0.5,1.2,1.3,1.3,2.2l-2.5,1.2c-0.2-0.6-0.5-1-0.9-1.3c-0.4-0.3-0.8-0.4-1.4-0.4c-0.8,0-1.4,0.2-2,0.6c-0.5,0.4-0.9,1-1.1,1.7
		c-0.3,1.1,0.5,2.1,2.3,3.1c0.1,0.1,0.2,0.1,0.3,0.2c1.5,0.8,2.6,1.6,3,2.4c0.5,0.8,0.5,1.8,0.3,3c-0.4,1.7-1.3,3.1-2.6,4.1
		c-1.3,1-2.8,1.5-4.7,1.5c-1.5,0-2.7-0.4-3.5-1.1C278.3,218,277.9,217,277.9,215.7L277.9,215.7z M274.9,203.6l-3.8,15.7h-2.9
		l3.8-15.7h-4.7l0.6-2.5h12.3l-0.6,2.5H274.9z M245.5,219.3l4.5-19l8.6,11.1c0.2,0.3,0.5,0.6,0.7,1c0.2,0.4,0.5,0.8,0.7,1.2l3-12.6
		h2.7l-4.5,18.9l-8.8-11.4c-0.2-0.3-0.5-0.6-0.7-1c-0.2-0.4-0.4-0.7-0.5-1.1l-3,12.7L245.5,219.3L245.5,219.3L245.5,219.3z
		 M232.3,219.3l4.3-18.2h9.9l-0.6,2.5h-7l-1.1,4.6h7l-0.6,2.6h-7l-1.4,5.9h7l-0.6,2.7L232.3,219.3L232.3,219.3z M227.5,210.3
		c0-0.1,0-0.5,0.1-1.2c0-0.5,0.1-0.9,0.1-1.3c-0.2,0.4-0.4,0.8-0.6,1.3c-0.2,0.4-0.5,0.9-0.8,1.3l-7,9.7l-2.3-9.9
		c-0.1-0.4-0.2-0.8-0.2-1.2c0-0.4-0.1-0.8-0.1-1.1c-0.1,0.4-0.2,0.8-0.4,1.2c-0.1,0.4-0.3,0.9-0.5,1.3l-4.1,9h-2.7l8.7-19l2.5,11.5
		c0,0.2,0.1,0.5,0.1,0.9c0,0.4,0.1,1,0.2,1.6c0.3-0.5,0.7-1.2,1.3-2c0.1-0.2,0.3-0.4,0.3-0.5l7.9-11.5l-0.3,19h-2.7L227.5,210.3
		L227.5,210.3z M199.9,219.3l2-8.3l-3.6-9.9h3l2.3,6.2c0,0.2,0.1,0.4,0.2,0.6c0.1,0.3,0.1,0.5,0.2,0.8c0.2-0.3,0.4-0.5,0.5-0.8
		c0.2-0.3,0.4-0.5,0.5-0.7l5.3-6.1h2.9l-8.5,9.8l-2,8.3L199.9,219.3L199.9,219.3L199.9,219.3z M186.5,212.1h4.9l-0.8-4.2
		c0-0.3-0.1-0.6-0.1-0.9c0-0.4,0-0.7,0-1.1c-0.2,0.4-0.4,0.8-0.6,1.1c-0.2,0.4-0.4,0.7-0.5,1L186.5,212.1L186.5,212.1z M192.7,219.3
		l-0.9-4.7h-7.1l-3.2,4.7h-3l13.1-19l4.1,19H192.7z M174.6,208.7h0.7c1.6,0,2.7-0.2,3.3-0.5c0.6-0.4,1-1,1.3-1.9
		c0.2-0.9,0.1-1.7-0.4-2c-0.5-0.4-1.5-0.6-3-0.6h-0.7L174.6,208.7L174.6,208.7z M173.8,211.1l-1.9,8.2h-2.7l4.3-18.2h4.4
		c1.3,0,2.2,0.1,2.8,0.2s1,0.4,1.4,0.7c0.5,0.4,0.8,1,0.9,1.7c0.1,0.7,0.1,1.5-0.1,2.4c-0.2,0.9-0.5,1.7-1,2.4
		c-0.5,0.7-1.1,1.3-1.7,1.7c-0.5,0.3-1.1,0.6-1.8,0.7c-0.6,0.1-1.6,0.2-2.9,0.2L173.8,211.1L173.8,211.1L173.8,211.1z M146.8,216.6
		h2.4c1.3,0,2.4-0.1,3.1-0.3c0.7-0.2,1.4-0.5,1.9-0.9c0.8-0.6,1.5-1.3,2-2.2c0.5-0.9,1-1.9,1.2-3.1c0.3-1.2,0.4-2.2,0.2-3
		c-0.1-0.9-0.5-1.6-1-2.2c-0.4-0.5-0.9-0.7-1.6-0.9c-0.7-0.2-1.7-0.3-3.2-0.3h-2.1L146.8,216.6L146.8,216.6z M143.3,219.3l4.3-18.2
		h3.9c2.5,0,4.3,0.1,5.2,0.4c1,0.3,1.8,0.7,2.4,1.3c0.8,0.8,1.4,1.9,1.6,3.1c0.2,1.3,0.1,2.7-0.2,4.3c-0.4,1.6-1,3-1.8,4.3
		c-0.8,1.3-1.9,2.3-3.1,3.1c-0.9,0.6-1.9,1-3,1.3c-1,0.3-2.6,0.4-4.7,0.4L143.3,219.3L143.3,219.3L143.3,219.3z M130,219.3l4.3-18.2
		h9.9l-0.6,2.5h-7l-1.1,4.6h7l-0.6,2.6h-7l-1.4,5.9h7l-0.6,2.7L130,219.3L130,219.3z M123,219.3l4.3-18.2h2.9l-4.3,18.2H123
		L123,219.3z M109.9,219.3l4.3-18.2h9.9l-0.6,2.5h-7l-1.1,4.5h7l-0.6,2.6h-7l-2,8.5L109.9,219.3L109.9,219.3L109.9,219.3z
		 M102.9,219.3l4.3-18.2h2.9l-4.3,18.2H102.9L102.9,219.3z M82.9,219.3l4.5-19l8.6,11.1c0.2,0.3,0.5,0.6,0.7,1
		c0.2,0.4,0.5,0.8,0.7,1.2l3-12.6h2.7L98.6,220l-8.8-11.4c-0.2-0.3-0.5-0.6-0.7-1c-0.2-0.4-0.4-0.7-0.5-1.1l-3,12.7L82.9,219.3
		L82.9,219.3L82.9,219.3z"/>
	<path class="st2" d="M359.4,185.2h-19.9l27.6-99.6H387L359.4,185.2z M194.4,179c-1.1,3.9-4.7,6.7-8.8,6.7H83.2
		c-2.8,0-4.9-1-6.2-2.8c-1.4-1.9-1.7-4.3-0.9-7.1l25-89.9h19.9l-22.3,80.3h79.4l22.3-80.3h19.9L194.4,179L194.4,179z M349,88.7
		c-1.4-1.9-3.5-2.8-6.4-2.8H233.6l-5.4,19.5h99.2l-5.8,20.9h-79.4v0h-19.9l-16.5,59.5h19.9l11-39.9h89.2c2.8,0,5.4-1,7.9-2.8
		c2.4-1.9,4.1-4.3,4.8-7.1l11-39.9C350.7,93,350.4,90.6,349,88.7L349,88.7z"/>
	<path class="st3" d="M421.2,85.8l25.1,49.9l-52.8,49.9l6.3-22.7l28.9-27.3L415,108.4L421.2,85.8z"/>
	<path class="st4" d="M403.6,85.8l25.1,49.9l-52.8,49.9L403.6,85.8z"/>
	<path class="st5" d="M48.2,0h415.6c13.3,0,25.3,5.4,34,14.1c8.7,8.7,14.1,20.8,14.1,34v209.3c0,13.3-5.4,25.3-14.1,34
		c-8.7,8.7-20.8,14.1-34,14.1H48.2c-13.3,0-25.3-5.4-34-14.1C5.4,282.8,0,270.8,0,257.5V48.2c0-13.3,5.4-25.3,14.1-34S34.9,0,48.2,0
		L48.2,0z M463.8,16.6H48.2c-8.7,0-16.6,3.6-22.3,9.3s-9.3,13.6-9.3,22.3v209.3c0,8.7,3.6,16.6,9.3,22.3c5.7,5.7,13.6,9.3,22.3,9.3
		h415.6c8.7,0,16.6-3.6,22.3-9.3c5.7-5.7,9.3-13.6,9.3-22.3V48.2c0-8.7-3.6-16.6-9.3-22.3C480.4,20.2,472.5,16.6,463.8,16.6
		L463.8,16.6z"/>
</g>
</svg>
