<?xml version="1.0" encoding="utf-8"?>
<!-- Generator: Adobe Illustrator 27.9.0, SVG Export Plug-In . SVG Version: 6.00 Build 0)  -->
<svg version="1.1"
	 id="Layer_1" text-rendering="geometricPrecision" shape-rendering="geometricPrecision" image-rendering="optimizeQuality"
	 xmlns="http://www.w3.org/2000/svg" xmlns:xlink="http://www.w3.org/1999/xlink" x="0px" y="0px" viewBox="0 0 512 305.7"
	 style="enable-background:new 0 0 512 305.7;" xml:space="preserve">
<style type="text/css">
	.st0{fill:#FFFFFF;}
	.st1{fill:#808080;}
	.st2{fill:#1434CB;}
</style>
<path class="st0" d="M506.7,40.9v223.8c0,9.3-3.7,17.7-9.7,23.8c-6,6.1-14.2,9.9-23.3,9.9H38.9c-9.1,0-17.3-3.8-23.3-9.9
	c-6-6.1-9.7-14.6-9.7-23.8V40.9c0-9.3,3.7-17.7,9.7-23.8c6-6.1,14.2-9.9,23.3-9.9h434.8v0c9.1,0,17.3,3.8,23.3,9.9
	C503,23.2,506.7,31.6,506.7,40.9z"/>
<g>
	<path class="st1" d="M48.2,0h415.6c13.3,0,25.3,5.4,34,14.1c8.7,8.7,14.1,20.8,14.1,34v209.3c0,13.2-5.4,25.3-14.1,34
		s-20.8,14.1-34,14.1H48.2c-13.3,0-25.3-5.4-34-14.1S0,270.8,0,257.5V48.2c0-13.3,5.4-25.3,14.1-34C22.9,5.4,34.9,0,48.2,0z
		 M463.8,16.6H48.2c-8.7,0-16.6,3.6-22.3,9.3c-5.7,5.7-9.3,13.6-9.3,22.3v209.3c0,8.7,3.5,16.6,9.3,22.3c5.7,5.7,13.6,9.3,22.3,9.3
		h415.6c8.7,0,16.6-3.6,22.3-9.3c5.7-5.7,9.3-13.6,9.3-22.3V48.2c0-8.7-3.6-16.6-9.3-22.3C480.4,20.2,472.5,16.6,463.8,16.6z"/>
	<path class="st2" d="M303.3,102.2c-22.2,0-42,11.5-42,32.7c0,24.4,35.1,26,35.1,38.3c0,5.2-5.9,9.8-16,9.8c-14.3,0-25-6.4-25-6.4
		l-4.6,21.4c0,0,12.3,5.4,28.7,5.4c24.2,0,43.3-12.1,43.3-33.7c0-25.7-35.3-27.4-35.3-38.7c0-4,4.9-8.4,14.9-8.4
		c11.4,0,20.6,4.7,20.6,4.7l4.5-20.7C327.6,106.6,317.5,102.2,303.3,102.2L303.3,102.2z M100.4,103.8l-0.5,3.1c0,0,9.3,1.7,17.7,5.1
		c10.8,3.9,11.6,6.2,13.4,13.2l19.9,76.6h26.6l41-98h-26.6l-26.4,66.7L154.8,114c-1-6.5-6-10.2-12.1-10.2L100.4,103.8L100.4,103.8z
		 M229.1,103.8l-20.8,98h25.3l20.8-98L229.1,103.8L229.1,103.8z M370.4,103.8c-6.1,0-9.4,3.3-11.7,9l-37.1,89.1h26.6l5.1-14.9h32.4
		l3.1,14.9h23.4l-20.4-98C391.7,103.8,370.4,103.8,370.4,103.8z M373.8,130.3l7.9,36.8h-21.1L373.8,130.3z"/>
</g>
</svg>
