<svg viewBox="0 0 24 24" fill="currentColor">
  <path d="M12 2a10 10 0 00-8.6 15l-1.4 5 5.1-1.3A10 10 0 1012 2zm0 18a8 8 0 01-4.1-1.1l-.3-.2-3 .8.8-2.9-.2-.3A8 8 0 1112 20zm4.3-6.1c-.2-.1-1.2-.6-1.4-.7-.2-.1-.3-.1-.5.1-.1.2-.6.7-.7.8-.1.1-.3.1-.5 0-.2-.1-.9-.3-1.6-1-.6-.6-1-1.3-1.1-1.5-.1-.2 0-.3.1-.5.1-.1.2-.3.3-.4.1-.1.1-.2.2-.3.1-.1 0-.3 0-.4 0-.1-.5-1.3-.7-1.7-.2-.5-.4-.4-.5-.4h-.4c-.1 0-.3 0-.5.2-.2.2-.7.7-.7 1.8s.8 2.1.9 2.3c.1.2 1.6 2.5 3.8 3.5.5.2.9.4 1.2.5.5.2 1 .2 1.4.1.4-.1 1.2-.5 1.4-1 .2-.5.2-.9.1-1z"></path>
</svg>