<?xml version="1.0" encoding="utf-8"?>
<!-- Generator: Adobe Illustrator 27.9.0, SVG Export Plug-In . SVG Version: 6.00 Build 0)  -->
<svg version="1.1" id="Layer_1" xmlns="http://www.w3.org/2000/svg" xmlns:xlink="http://www.w3.org/1999/xlink" x="0px" y="0px"
	 viewBox="0 0 24 24" style="enable-background:new 0 0 24 24;" xml:space="preserve">
<style type="text/css">
	.st0{fill:#E0E0E0;}
</style>
<path class="st0" d="M17,3.3C15.4,2.4,13.7,2,12,2C6.5,2,2,6.5,2.1,12.1c0,1.7,0.5,3.4,1.3,4.9L2,22l5.1-1.3
	c4.8,2.7,10.9,1,13.6-3.8C23.5,12.1,21.8,6,17,3.3z M16.2,18.7C15,19.6,13.5,20,12,20c-1.4,0-2.9-0.4-4.1-1.1l-0.3-0.2l-3,0.8
	l0.8-2.9l-0.2-0.3c-2.4-3.7-1.3-8.7,2.4-11c3.7-2.4,8.7-1.3,11,2.4C21.1,11.4,20,16.4,16.2,18.7z"/>
<path class="st0" d="M16.3,13.9c-0.2-0.1-1.2-0.6-1.4-0.7c-0.2-0.1-0.3-0.1-0.5,0.1c-0.1,0.2-0.6,0.7-0.7,0.8
	c-0.1,0.1-0.3,0.1-0.5,0s-0.9-0.3-1.6-1c-0.6-0.6-1-1.3-1.1-1.5s0-0.3,0.1-0.5c0.1-0.1,0.2-0.3,0.3-0.4c0.1-0.1,0.1-0.2,0.2-0.3
	c0.1-0.1,0-0.3,0-0.4c0-0.1-0.5-1.3-0.7-1.7C10.2,7.8,10,7.9,9.9,7.9H9.5c-0.1,0-0.3,0-0.5,0.2C8.8,8.3,8.3,8.8,8.3,9.9
	s0.8,2.1,0.9,2.3c0.1,0.2,1.6,2.5,3.8,3.5c0.5,0.2,0.9,0.4,1.2,0.5c0.5,0.2,1,0.2,1.4,0.1s1.2-0.5,1.4-1s0.2-0.9,0.1-1L16.3,13.9z"
	/>
</svg>
