<?xml version="1.0" encoding="utf-8"?>
<!-- Generator: Adobe Illustrator 27.9.0, SVG Export Plug-In . SVG Version: 6.00 Build 0)  -->
<svg version="1.1" id="Layer_1" xmlns="http://www.w3.org/2000/svg" xmlns:xlink="http://www.w3.org/1999/xlink" x="0px" y="0px"
	 viewBox="0 0 24 24" style="enable-background:new 0 0 24 24;" xml:space="preserve">
<style type="text/css">
	.st0{fill:#E0E0E0;}
</style>
<path class="st0" d="M21.6,7.2c0,0-0.2-1.5-0.8-2.1c-0.8-0.8-1.6-0.8-2-0.9C15.8,4,12,4,12,4S8.2,4,5.2,4.2c-0.4,0-1.2,0.1-2,0.9
	C2.6,5.7,2.4,7.2,2.4,7.2S2,9,2,10.8v1.4C2,14,2.4,16,2.4,16s0.2,1.5,0.8,2.1C4,18.9,5.1,18.9,5.6,19c1.7,0.2,6.4,0.2,6.4,0.2
	s3.8,0,6.8-0.2c0.4,0,1.2-0.1,2-0.9c0.6-0.6,0.8-2.1,0.8-2.1s0.4-2,0.4-3.8v-1.4C22,9,21.6,7.2,21.6,7.2z M10,14.5v-5l5,2.5L10,14.5
	z"/>
</svg>
