<?xml version="1.0" standalone="no"?>
<!DOCTYPE svg PUBLIC "-//W3C//DTD SVG 20010904//EN"
 "http://www.w3.org/TR/2001/REC-SVG-20010904/DTD/svg10.dtd">
<svg version="1.0" xmlns="http://www.w3.org/2000/svg"
 width="5558.000000pt" height="5558.000000pt" viewBox="0 0 5558.000000 5558.000000"
 preserveAspectRatio="xMidYMid meet">
<metadata>
Created by potrace 1.14, written by Peter Selinger 2001-2017
</metadata>
<g transform="translate(0.000000,5558.000000) scale(0.100000,-0.100000)"
fill="#000000" stroke="none">
<path d="M7185 55559 c-1724 -115 -3314 -780 -4610 -1927 -161 -143 -497 -479
-631 -632 -723 -825 -1235 -1715 -1563 -2724 -177 -544 -289 -1091 -348 -1711
-17 -183 -18 -968 -18 -20780 0 -19812 1 -20597 18 -20780 83 -868 275 -1628
605 -2390 477 -1106 1240 -2114 2184 -2888 1091 -894 2426 -1474 3821 -1661
100 -14 268 -33 372 -43 183 -17 968 -18 20780 -18 19812 0 20597 1 20780 18
620 59 1167 171 1711 348 1507 491 2815 1429 3775 2709 775 1033 1281 2270
1453 3553 14 100 33 268 43 372 17 183 18 968 18 20780 0 19812 -1 20597 -18
20780 -83 868 -275 1628 -605 2390 -477 1106 -1240 2114 -2184 2888 -546 447
-1186 836 -1830 1111 -823 351 -1637 544 -2556 606 -185 12 -41011 12 -41197
-1z m23165 -8026 c334 -107 550 -340 632 -682 7 -29 13 -238 17 -556 l6 -510
1285 -5 c1422 -6 1306 0 1474 -70 204 -86 368 -246 462 -450 37 -81 51 -122
69 -212 13 -69 15 -969 15 -8639 0 -7832 -1 -8566 -16 -8616 -52 -180 -185
-316 -363 -372 -19 -6 -80 -11 -136 -11 -108 0 -195 21 -265 63 -87 53 -197
181 -221 259 -6 18 -16 49 -22 68 -9 26 -13 2177 -17 8490 l-5 8455 -1130 0
-1130 0 -5 -9315 c-4 -6952 -9 -9326 -17 -9360 -70 -273 -222 -479 -446 -604
-84 -47 -152 -71 -284 -101 -130 -29 -179 -31 -277 -9 -101 23 -481 147 -561
183 -11 5 -54 22 -95 36 -41 15 -138 49 -215 77 -77 27 -151 53 -165 58 -14 4
-101 36 -195 70 -93 34 -199 72 -235 85 -36 13 -132 48 -215 78 -136 50 -271
98 -395 141 -25 8 -101 36 -170 61 -139 51 -391 142 -430 155 -14 5 -70 25
-125 45 -55 21 -110 40 -123 42 -12 3 -25 9 -28 14 -3 5 -15 9 -28 9 -12 0
-26 3 -30 7 -4 4 -24 13 -44 19 -20 7 -75 26 -122 44 -47 17 -96 35 -110 40
-14 4 -70 25 -125 45 -55 20 -111 40 -125 45 -14 5 -83 29 -155 55 -71 26
-191 69 -265 95 -74 27 -180 65 -235 85 -172 63 -348 126 -405 145 -30 10 -73
25 -95 33 -22 8 -74 27 -115 42 -41 15 -84 30 -95 35 -28 12 -122 46 -250 90
-60 21 -155 55 -210 75 -55 20 -163 59 -240 87 -77 28 -194 70 -260 93 -66 24
-172 62 -235 85 -63 23 -142 51 -175 62 -33 11 -69 23 -80 28 -11 5 -54 20
-95 35 -67 24 -159 58 -315 115 -27 10 -97 35 -155 55 -58 20 -123 43 -145 52
-22 8 -101 37 -175 63 -74 26 -193 69 -265 95 -193 70 -377 136 -405 145 -180
60 -327 121 -396 165 -192 123 -317 292 -391 530 l-28 90 0 7915 c0 6527 2
7928 13 7990 34 192 80 336 158 496 156 321 444 605 764 756 160 75 244 101
470 143 156 30 183 35 380 70 80 14 170 30 200 36 71 13 148 26 235 39 39 6
77 12 85 15 8 2 69 14 135 25 66 12 156 27 200 35 44 8 132 24 195 35 63 12
167 30 230 41 63 11 153 27 200 35 47 9 99 18 115 21 71 12 461 81 525 93 240
44 512 92 620 109 73 11 379 65 455 80 118 24 449 83 565 101 52 9 280 49 400
71 30 5 84 14 119 20 35 5 109 18 165 29 100 19 179 34 471 85 83 14 173 30
200 35 28 5 104 19 170 30 66 12 156 27 200 35 44 8 145 26 225 40 80 14 168
29 195 35 28 5 79 14 115 20 36 6 85 15 110 20 25 5 113 21 195 35 273 47 380
66 425 75 25 5 63 12 85 16 22 4 47 10 55 15 8 5 80 9 160 9 140 0 149 -1 260
-37z m-20082 -27653 c2 -1330 -1 -2039 -8 -2150 -20 -313 -71 -577 -146 -758
-189 -458 -583 -703 -1261 -786 -270 -34 -463 -38 -1498 -33 -1043 5 -1089 6
-1355 48 -743 115 -1117 438 -1245 1074 -57 280 -59 327 -60 1030 0 704 4 762
60 1041 134 660 536 988 1335 1088 264 33 402 36 1833 36 l1437 0 0 700 0 700
453 -2 452 -3 3 -1985z m21183 661 c114 -44 195 -118 269 -248 26 -47 198
-432 1022 -2298 148 -335 281 -636 295 -668 15 -32 29 -54 34 -50 4 4 85 177
179 383 95 206 216 470 270 585 53 116 306 662 560 1215 255 553 468 1008 474
1012 16 11 914 10 920 -1 3 -5 -93 -222 -213 -482 -691 -1498 -1255 -2720
-1341 -2904 -53 -115 -154 -334 -224 -485 -143 -311 -180 -367 -298 -450 -84
-59 -230 -110 -314 -110 -67 0 -218 49 -287 93 -64 42 -165 146 -199 207 -14
25 -326 721 -694 1548 -368 826 -671 1502 -674 1502 -3 0 -38 -71 -79 -158
-41 -86 -228 -481 -416 -877 -188 -396 -356 -749 -372 -785 -17 -36 -103 -216
-190 -400 -88 -184 -211 -443 -273 -575 -131 -278 -158 -322 -245 -403 -71
-67 -134 -100 -248 -131 -101 -27 -161 -26 -277 4 -150 40 -242 116 -323 265
-19 36 -283 628 -585 1315 -303 688 -706 1603 -896 2034 -190 432 -343 788
-340 793 3 4 214 8 468 8 363 0 466 -3 474 -13 9 -11 147 -320 642 -1442 70
-159 189 -427 263 -595 380 -861 437 -992 472 -1072 21 -49 41 -88 44 -88 3 1
42 78 85 173 44 95 186 399 317 677 130 278 411 876 623 1330 221 471 406 853
432 891 120 177 234 232 469 225 92 -3 133 -9 176 -25z m8288 -85 c643 -85
1009 -294 1214 -693 88 -172 144 -382 166 -623 14 -149 14 -1399 0 -1590 -45
-639 -227 -984 -627 -1188 -180 -92 -405 -149 -742 -189 -128 -15 -309 -17
-1565 -21 -1437 -4 -1606 -1 -1830 33 -346 52 -569 149 -745 325 -79 78 -104
111 -142 185 -95 185 -118 315 -125 690 -11 581 40 844 201 1047 120 151 346
278 601 338 239 57 117 54 2175 60 l1895 5 1 100 c2 218 -29 398 -89 529 -65
139 -201 254 -357 300 -152 46 -200 48 -962 53 l-728 4 0 330 0 330 768 -4
c640 -3 787 -7 891 -21z m10041 1 c203 -33 364 -78 505 -143 269 -122 464
-341 538 -604 52 -182 51 -173 55 -1002 l3 -778 -2316 0 -2315 0 0 -157 c1
-634 112 -804 565 -864 60 -8 371 -14 935 -18 l845 -6 0 -365 0 -365 -855 0
c-749 1 -872 3 -989 18 -486 62 -802 190 -1024 414 -220 222 -333 503 -377
933 -11 111 -10 1475 1 1605 30 347 106 610 230 795 232 345 607 500 1339 553
25 2 655 3 1400 2 1221 -1 1365 -3 1460 -18z m-34835 3 c597 -44 985 -175
1233 -418 255 -249 372 -578 413 -1154 17 -244 6 -1191 -15 -1358 -58 -455
-167 -723 -379 -934 -243 -243 -558 -360 -1147 -427 -138 -16 -2013 -24 -2243
-10 -442 28 -752 94 -987 210 -258 127 -413 279 -535 526 -93 187 -139 372
-175 700 -17 154 -25 983 -11 1237 33 605 145 943 395 1194 252 252 637 387
1231 433 162 12 2052 13 2220 1z m6390 0 c1044 -77 1488 -422 1614 -1255 38
-246 43 -392 38 -1000 -5 -608 -9 -680 -57 -916 -47 -230 -134 -442 -239 -580
-256 -337 -679 -503 -1396 -549 -206 -13 -1899 -13 -2110 0 -745 47 -1187 231
-1431 596 -94 141 -151 283 -198 496 -55 251 -59 316 -64 968 -2 400 0 654 8
749 53 662 243 1028 650 1254 233 129 598 213 1035 240 140 9 2026 6 2150 -3z
m5305 -360 l0 -370 -457 0 c-594 0 -766 -15 -944 -80 -235 -85 -348 -243 -411
-570 -21 -114 -22 -123 -25 -1522 l-4 -1408 -454 0 -455 0 0 1353 c0 815 4
1398 10 1467 24 277 82 516 171 699 69 145 130 231 234 336 226 226 526 359
960 424 222 34 319 38 863 40 l512 1 0 -370z m18131 0 l0 -365 -533 -6 c-599
-7 -694 -16 -863 -76 -198 -72 -325 -215 -384 -433 -56 -203 -54 -151 -58
-1667 l-4 -1403 -455 0 -455 0 4 1423 c3 1396 3 1424 24 1553 41 248 89 416
160 559 209 418 594 658 1195 745 232 34 317 37 856 36 l513 -1 0 -365z"/>
<path d="M29865 46490 c-16 -5 -73 -16 -125 -24 -52 -8 -171 -28 -265 -45 -93
-17 -197 -35 -230 -40 -56 -10 -304 -54 -370 -67 -16 -3 -54 -9 -82 -15 -29
-5 -79 -14 -110 -20 -32 -5 -94 -16 -138 -24 -170 -29 -491 -86 -677 -119 -49
-9 -127 -23 -175 -31 -194 -34 -321 -56 -368 -65 -59 -11 -245 -45 -365 -66
-47 -8 -122 -21 -167 -30 -45 -8 -119 -21 -165 -29 -46 -8 -137 -23 -203 -35
-66 -11 -156 -27 -200 -35 -44 -7 -132 -23 -195 -35 -63 -11 -143 -25 -178
-31 -35 -5 -96 -16 -135 -24 -40 -8 -99 -19 -132 -24 -57 -10 -218 -38 -370
-65 -38 -7 -117 -21 -175 -30 -58 -9 -121 -21 -140 -26 -19 -4 -105 -20 -190
-34 -85 -15 -166 -29 -180 -31 -14 -3 -115 -21 -225 -40 -446 -78 -726 -128
-810 -145 -63 -12 -190 -34 -370 -65 -417 -71 -440 -77 -542 -141 -146 -92
-244 -231 -279 -392 -12 -57 -14 -1183 -14 -7814 0 -4262 1 -7748 3 -7748 6 0
449 -157 662 -235 190 -69 210 -76 265 -95 30 -11 100 -35 155 -56 55 -20 168
-60 250 -89 83 -29 195 -70 250 -90 55 -20 154 -56 220 -80 66 -23 176 -63
245 -88 69 -24 166 -59 215 -76 135 -48 228 -82 250 -91 11 -4 34 -13 50 -19
220 -77 434 -154 447 -162 10 -5 26 -9 36 -9 10 0 22 -4 28 -9 5 -4 50 -22 99
-39 50 -17 117 -41 150 -53 94 -34 257 -92 415 -148 80 -28 154 -56 165 -61
11 -5 72 -27 135 -49 63 -22 153 -54 200 -71 47 -17 99 -36 115 -42 17 -5 39
-13 50 -18 11 -5 47 -18 80 -29 70 -24 238 -84 380 -135 144 -53 234 -85 285
-102 25 -8 54 -19 65 -24 11 -4 53 -20 93 -34 39 -14 102 -37 140 -50 37 -13
108 -39 157 -56 114 -40 224 -80 250 -90 22 -9 63 -24 295 -106 171 -61 265
-95 415 -149 55 -21 161 -59 235 -85 210 -75 519 -186 694 -250 88 -33 163
-57 168 -54 4 3 8 4514 8 10025 l0 10019 -32 -1 c-18 -1 -46 -5 -63 -9z
m-1710 -8938 c95 -26 93 -25 215 -85 483 -235 726 -774 588 -1302 -28 -111
-114 -285 -189 -383 -149 -198 -368 -345 -609 -409 -115 -31 -370 -43 -473
-24 -285 55 -507 184 -685 399 -104 126 -176 268 -219 431 -37 141 -43 356
-13 501 90 440 429 788 860 881 123 26 411 21 525 -9z"/>
<path d="M27748 36810 c-59 -22 -92 -46 -150 -107 -71 -77 -91 -130 -92 -243
0 -84 3 -102 27 -152 35 -71 114 -150 187 -186 48 -24 67 -27 150 -27 89 0
101 2 163 34 82 42 140 102 178 187 69 151 19 335 -118 440 -94 72 -239 94
-345 54z"/>
<path d="M6405 19679 c-510 -38 -698 -182 -770 -588 -28 -160 -37 -427 -32
-904 5 -484 14 -597 56 -752 68 -245 205 -382 448 -445 194 -50 244 -53 1243
-57 614 -3 998 -1 1117 6 266 16 408 44 527 102 171 85 259 198 311 403 45
178 48 246 52 1274 l4 972 -1423 -1 c-783 -1 -1472 -5 -1533 -10z"/>
<path d="M36719 18220 c-225 -17 -375 -102 -427 -243 -39 -102 -44 -167 -40
-518 4 -326 4 -335 28 -398 28 -71 83 -140 142 -177 66 -42 204 -82 323 -94
78 -8 494 -10 1415 -8 1422 5 1415 4 1595 62 202 65 323 188 394 400 54 164
64 259 65 641 l1 340 -1700 1 c-935 1 -1743 -2 -1796 -6z"/>
<path d="M46955 19714 c-314 -21 -449 -63 -547 -173 -117 -130 -158 -333 -158
-783 l0 -188 1860 0 1860 0 0 388 c-1 279 -4 408 -14 463 -30 167 -100 234
-288 276 -65 15 -206 17 -1368 18 -712 1 -1317 0 -1345 -1z"/>
<path d="M12945 19679 c-375 -25 -578 -91 -720 -234 -82 -81 -123 -154 -159
-279 -50 -171 -58 -280 -61 -791 -3 -593 10 -771 71 -955 56 -166 157 -285
304 -357 226 -111 460 -133 1460 -133 959 0 1210 19 1431 110 268 111 374 304
408 740 11 139 11 925 0 1065 -25 325 -88 499 -223 623 -140 127 -345 186
-731 212 -185 12 -1599 11 -1780 -1z"/>
<path d="M19345 19680 c-389 -29 -585 -91 -724 -228 -118 -116 -175 -263 -206
-524 -21 -188 -22 -1046 0 -1232 36 -310 118 -480 282 -589 226 -150 460 -177
1543 -177 1005 0 1242 22 1469 132 156 75 272 219 316 392 46 181 50 253 50
856 0 502 -2 590 -18 693 -68 448 -253 603 -797 668 -114 14 -1748 21 -1915 9z"/>
</g>
</svg>
