<svg xmlns="http://www.w3.org/2000/svg" viewBox="0 0 1191.5 217.7"><defs><style>.cls-1{fill:#010101;}</style></defs><g id="Layer_2" data-name="Layer 2"><g id="Layer_1-2" data-name="Layer 1"><polygon points="96.9 0 71.4 14.3 95.8 28 168.3 68.8 168.3 68.8 168.3 177.5 193.8 163.3 193.8 54.4 96.9 0"/><path d="M57.6,130.9l56.2,31.5v20.3l-16.3,9.6L23.3,150.1h0V111.6Zm6.7-85.1L39.8,32,0,54.4v109l96.9,54.3,23.4-13.1,16.4-9.6V148.8l-55.9-31L23.1,85.4V68.8l15.3-8.3,72.5,40.8L137.2,116V86.6h0Z"/><path class="cls-1" d="M1126.8,89.45l36,76a10.9,10.9,0,0,0,3.3,4.4,9.2,9.2,0,0,0,4.6,1.1h16.9c2.6,0,3.9-.9,3.9-2.5a8.6,8.6,0,0,0-.9-3l-56.1-112.9a61.64,61.64,0,0,0-4-7.1,4.27,4.27,0,0,0-3.5-1.7,4.94,4.94,0,0,0-3.6,1.7,33.17,33.17,0,0,0-4,7.1l-55.5,113.3a7.5,7.5,0,0,0-.9,3c0,1.6,1.2,2.5,3.9,2.5h15.9a8.94,8.94,0,0,0,4.8-1.1,11.63,11.63,0,0,0,3.2-4.4ZM1022,51l-41.3,53.5a6.56,6.56,0,0,0-1.7,3.9,6.38,6.38,0,0,0,1.5,3.7l41.7,54.8a14.1,14.1,0,0,0,3.7,3.6,10.21,10.21,0,0,0,4.9.9H1050c2.5,0,3.8-.7,3.8-2.1a5,5,0,0,0-1.2-2.9l-46.2-58.8,45.1-56.4a3.73,3.73,0,0,0,1.2-2.6c0-1.4-1.2-2.2-3.6-2.2h-19.2a8.87,8.87,0,0,0-4.8,1,11.58,11.58,0,0,0-3.6,3.7m-46.4,115.7V51a4.81,4.81,0,0,0-1.1-3.4,5.89,5.89,0,0,0-3.4-1H954.8a4.48,4.48,0,0,0-3.3,1,4.53,4.53,0,0,0-1.1,3.4v116.1a4.43,4.43,0,0,0,1.1,3.3,4.36,4.36,0,0,0,3.3,1h16.3a4.72,4.72,0,0,0,3.4-1,4.43,4.43,0,0,0,1.1-3.3m-62.8,0V51a4.39,4.39,0,0,0-1.1-3.4,5.89,5.89,0,0,0-3.4-1H892a5,5,0,0,0-3.3,1,5.24,5.24,0,0,0-1,3.4v116.1a3.54,3.54,0,0,0,2.7,4.2,3.79,3.79,0,0,0,1.5,0h16.3a4.72,4.72,0,0,0,3.4-1,4.14,4.14,0,0,0,1.2-3.2m-109.3-21.3V51a4.81,4.81,0,0,0-1.1-3.4,5.89,5.89,0,0,0-3.4-1H782.8a4.48,4.48,0,0,0-3.3,1,5,5,0,0,0-.7,3.4v116.1a4.43,4.43,0,0,0,1.1,3.3,4.36,4.36,0,0,0,3.3,1h71.6a3.54,3.54,0,0,0,4.2-2.7,3.79,3.79,0,0,0,0-1.5v-14.7a3.54,3.54,0,0,0-2.7-4.2,3.79,3.79,0,0,0-1.5,0h-49a2,2,0,0,1-1.8-.6,2.48,2.48,0,0,1,0-1.7m-161.7-37.3a42.59,42.59,0,0,1,5.3-21.5,37.85,37.85,0,0,1,14.2-14.7,38.65,38.65,0,0,1,20.2-5.3,39.82,39.82,0,0,1,19.9,5.6,36.39,36.39,0,0,1,14.4,14.7,45.21,45.21,0,0,1,5.7,21.3,43,43,0,0,1-5.4,21.3,38.79,38.79,0,0,1-14.7,15.1,42,42,0,0,1-40.5,0,38.75,38.75,0,0,1-14.1-14.6,44,44,0,0,1-5-21.9m-25.9,0a65.73,65.73,0,0,0,8.6,33.8,60.32,60.32,0,0,0,23.4,22.8,67.57,67.57,0,0,0,33.5,8.2,69.17,69.17,0,0,0,33.9-8.3,60.5,60.5,0,0,0,23.7-23.1,66.18,66.18,0,0,0,8.5-33.4,65.18,65.18,0,0,0-8.6-33.1,59.48,59.48,0,0,0-23.4-23,69.1,69.1,0,0,0-33.3-8.3,67.45,67.45,0,0,0-33.7,8.4A61.09,61.09,0,0,0,625,76a66.38,66.38,0,0,0-8.6,33.5m-19.2-44V51.05a5.24,5.24,0,0,0-1-3.4,5.89,5.89,0,0,0-3.4-1H502.1a4.48,4.48,0,0,0-3.3,1,4.53,4.53,0,0,0-1.1,3.4v14.4a4.43,4.43,0,0,0,1.1,3.3,4.36,4.36,0,0,0,3.3,1h30.7a2.79,2.79,0,0,1,1.8.6,2.19,2.19,0,0,1,.7,1.7v95.1a3.54,3.54,0,0,0,2.7,4.2,3.79,3.79,0,0,0,1.5,0h16.3a4.72,4.72,0,0,0,3.4-1,4.43,4.43,0,0,0,1.1-3.3V72a2,2,0,0,1,1.7-2.3h31.3a4.72,4.72,0,0,0,3.4-1,5.38,5.38,0,0,0,1-3.3M407,167.05V70.85c0-1,0-1.5.6-1.8a2.48,2.48,0,0,1,1.7,0h13.8A36.57,36.57,0,0,1,444,74a17.26,17.26,0,0,1,8,15.5,18.18,18.18,0,0,1-6.9,15.2,35.89,35.89,0,0,1-18.1,6.6c-2.1,0-3.2.8-3.2,1.9a4.61,4.61,0,0,0,1.1,2.7l30,50.5a11.5,11.5,0,0,0,3.7,4.2,9.94,9.94,0,0,0,5.1,1h17.2c2.9,0,4.3-.7,4.3-2.1a8.47,8.47,0,0,0-1.4-3.4l-29-45.8a37.7,37.7,0,0,0,16.3-13,32.77,32.77,0,0,0,6-20.3,36,36,0,0,0-13.2-30.4A65.68,65.68,0,0,0,423.8,47H386.3a4.48,4.48,0,0,0-3.3,1,4.53,4.53,0,0,0-1.1,3.4v115.8a4.43,4.43,0,0,0,1.1,3.3,4.36,4.36,0,0,0,3.3,1h16.3a4.72,4.72,0,0,0,3.4-1,5.24,5.24,0,0,0,1-3.4M294.5,89.45l36.1,76a11.63,11.63,0,0,0,3.2,4.4,9.2,9.2,0,0,0,4.6,1.1h17.4c2.6,0,3.9-.9,3.9-2.5a8.6,8.6,0,0,0-.9-3L302.5,52.55a47.35,47.35,0,0,0-4.5-7.1,4.08,4.08,0,0,0-3.4-1.7,4.94,4.94,0,0,0-3.6,1.7,29.77,29.77,0,0,0-4.1,7.1l-55.1,113.3a7.5,7.5,0,0,0-.9,3c0,1.6,1.3,2.5,3.9,2.5h16a8.94,8.94,0,0,0,4.8-1.1,11.63,11.63,0,0,0,3.2-4.4Z"/></g></g></svg>