<?xml version="1.0" encoding="utf-8"?>
<!-- Generator: Adobe Illustrator 27.9.0, SVG Export Plug-In . SVG Version: 6.00 Build 0)  -->
<svg version="1.1" id="Layer_1" xmlns="http://www.w3.org/2000/svg" xmlns:xlink="http://www.w3.org/1999/xlink" x="0px" y="0px"
	 viewBox="0 0 235.4 91.1" style="enable-background:new 0 0 235.4 91.1;" xml:space="preserve">
<style type="text/css">
	.st0{fill:#EF776A;}
</style>
<path class="st0" d="M0,28h19.9v11.2c3.9-5.3,13.3-11.1,23.8-11.1c20.4,0,30.9,14.3,30.9,34.5v28.5H54.6V64.4
	c0-10.1-3-20.8-15.2-20.8c-13.6,0-19.7,12.7-19.7,20.3l0.1,27.1H0V28z"/>
<polygon class="st0" points="233.9,75.3 233.9,90.8 163.3,91.1 163.6,90.8 163.3,90.8 200.5,44 164.8,44 164.8,28 235.4,28 
	196.8,75.3 "/>
<rect x="98.8" class="st0" width="41.5" height="15.1"/>
<path class="st0" d="M119.5,28c-17.8,0-35.8,12.6-35.8,31.6s18,31.5,35.8,31.5s35.8-12.4,35.8-31.5S137.3,28,119.5,28z M119.5,74.8
	c-9.2,0-17.7-6.2-17.7-15.2s8.5-15.3,17.7-15.3c9,0,17.5,6.1,17.5,15.3S128.4,74.8,119.5,74.8L119.5,74.8z"/>
</svg>
