<?xml version="1.0" standalone="no"?>
<!DOCTYPE svg PUBLIC "-//W3C//DTD SVG 20010904//EN"
 "http://www.w3.org/TR/2001/REC-SVG-20010904/DTD/svg10.dtd">
<svg version="1.0" xmlns="http://www.w3.org/2000/svg"
 width="1997.000000pt" height="1997.000000pt" viewBox="0 0 1997.000000 1997.000000"
 preserveAspectRatio="xMidYMid meet">
<metadata>
Created by potrace 1.14, written by Peter Selinger 2001-2017
</metadata>
<g transform="translate(0.000000,1997.000000) scale(0.100000,-0.100000)"
fill="#000000" stroke="none">
<path d="M4525 19959 c-1503 -121 -2865 -922 -3700 -2174 -256 -385 -431 -742
-575 -1175 -131 -393 -207 -767 -240 -1184 -14 -178 -14 -10714 0 -10892 95
-1205 615 -2316 1472 -3149 777 -755 1728 -1214 2818 -1362 129 -17 369 -18
5690 -18 5321 0 5561 1 5690 18 1441 195 2681 963 3475 2152 427 640 686 1332
792 2115 17 129 18 369 18 5690 0 5321 -1 5561 -18 5690 -153 1127 -651 2128
-1445 2902 -836 814 -1900 1296 -3066 1388 -156 12 -10758 11 -10911 -1z
m10405 -10024 l0 -4975 -4970 0 -4970 0 0 4975 0 4975 4970 0 4970 0 0 -4975z"/>
<path d="M5990 9845 l0 -3905 3983 2 3982 3 0 3900 0 3900 -3982 3 -3983 2 0
-3905z m4030 2735 c1007 -64 1674 -520 1864 -1276 50 -195 59 -284 60 -529 0
-167 -5 -263 -18 -350 -65 -448 -226 -784 -496 -1039 -102 -95 -266 -205 -371
-248 -43 -17 -79 -36 -79 -41 0 -5 71 -136 159 -291 87 -154 285 -506 441
-781 155 -275 333 -591 396 -702 63 -111 114 -204 114 -207 0 -4 -322 -5 -716
-4 l-716 3 -32 60 c-18 33 -173 335 -346 670 -172 336 -348 678 -390 760 -206
398 -580 1126 -580 1130 0 2 152 5 338 8 379 4 390 6 548 82 194 94 341 280
406 515 32 117 36 312 9 421 -75 296 -315 535 -621 618 -134 36 -247 41 -908
41 l-640 0 -67 133 c-38 72 -171 332 -297 576 -125 244 -228 447 -228 452 0
13 1966 11 2170 -1z"/>
</g>
</svg>
