<?xml version="1.0" encoding="UTF-8" ?>
<!DOCTYPE svg PUBLIC "-//W3C//DTD SVG 1.1//EN" "http://www.w3.org/Graphics/SVG/1.1/DTD/svg11.dtd">
<svg width="512pt" height="512pt" viewBox="0 0 512 512" version="1.1" xmlns="http://www.w3.org/2000/svg">
<g id="#000000ff">
<path fill="#000000" opacity="1.00" d=" M 250.45 22.68 C 253.66 21.19 257.39 20.87 260.67 22.36 C 306.70 39.96 352.62 57.83 398.68 75.33 C 402.32 76.69 405.01 80.22 405.38 84.09 C 405.28 141.06 405.36 198.04 405.34 255.02 C 405.40 257.81 404.71 260.70 402.84 262.84 C 400.60 265.60 397.02 266.52 393.87 267.78 C 350.78 284.34 307.70 300.91 264.62 317.49 C 261.22 318.93 257.70 320.71 253.88 319.92 C 207.21 302.00 160.52 284.00 113.84 266.08 C 109.62 264.65 106.60 260.43 106.69 255.96 C 106.60 198.67 106.75 141.37 106.61 84.09 C 106.93 80.69 109.04 77.59 111.99 75.93 C 158.16 58.26 204.32 40.49 250.45 22.68 M 147.04 85.37 C 183.40 99.22 219.69 113.26 256.01 127.21 C 292.35 113.32 328.66 99.34 364.95 85.29 C 328.61 71.39 292.34 57.30 255.98 43.44 C 219.70 57.49 183.34 71.34 147.04 85.37 M 128.01 100.85 C 127.99 150.13 127.99 199.41 128.01 248.68 C 167.13 263.71 206.25 278.76 245.36 293.80 C 245.28 244.53 245.38 195.27 245.31 146.00 C 206.23 130.90 167.11 115.91 128.01 100.85 M 266.69 146.06 C 266.63 195.33 266.71 244.59 266.65 293.86 C 305.76 278.84 344.84 263.72 383.96 248.74 C 384.04 199.46 383.98 150.17 384.00 100.89 C 344.90 115.98 305.76 130.94 266.69 146.06 Z" />
<path fill="#000000" opacity="1.00" d=" M 28.32 326.41 C 39.03 320.52 50.49 316.09 62.13 312.43 C 67.75 310.55 74.29 314.43 75.73 320.09 C 77.03 325.01 74.22 330.71 69.37 332.43 C 54.95 337.31 40.11 342.45 28.14 352.18 C 24.35 355.46 19.65 360.40 22.03 365.81 C 24.95 372.02 31.09 375.77 36.71 379.28 C 52.97 388.55 71.07 393.92 89.09 398.59 C 136.68 410.03 185.69 414.34 234.52 415.82 C 228.72 411.52 222.87 407.26 217.20 402.79 C 212.01 398.84 212.17 390.20 217.38 386.34 C 221.33 383.02 227.42 383.45 231.24 386.76 C 245.15 397.23 259.14 407.59 273.00 418.11 C 278.58 422.02 278.66 431.14 273.11 435.12 C 259.67 445.38 246.03 455.39 232.56 465.61 C 230.08 467.51 227.30 469.45 224.02 469.30 C 219.17 469.36 214.58 465.77 213.61 460.99 C 212.59 456.85 214.46 452.36 217.91 449.93 C 223.61 445.62 229.32 441.32 235.09 437.10 C 208.61 436.41 182.12 434.98 155.83 431.67 C 124.12 428.06 92.52 422.45 62.01 412.97 C 46.32 407.82 30.61 401.68 17.29 391.71 C 8.72 385.28 1.18 376.25 0.00 365.22 L 0.00 361.43 C 0.34 356.49 1.78 351.62 4.36 347.38 C 9.97 338.12 19.05 331.64 28.32 326.41 Z" />
<path fill="#000000" opacity="1.00" d=" M 437.39 317.44 C 439.78 312.83 445.73 310.73 450.55 312.62 C 466.41 317.79 482.31 324.02 495.65 334.27 C 504.18 340.83 511.46 350.26 512.00 361.40 L 512.00 365.01 C 511.15 373.11 507.03 380.58 501.25 386.22 C 491.13 396.31 478.00 402.63 464.89 407.88 C 441.92 416.81 417.74 422.04 393.54 426.31 C 373.13 429.77 352.57 432.31 331.95 434.05 C 326.36 434.87 320.62 430.68 319.93 425.04 C 318.87 419.09 323.75 413.12 329.76 412.85 C 359.56 410.27 389.33 406.40 418.48 399.54 C 435.61 395.38 452.69 390.44 468.60 382.73 C 475.25 379.34 482.02 375.68 487.12 370.10 C 489.34 367.58 491.43 364.16 490.33 360.69 C 488.75 356.07 484.81 352.80 481.04 349.95 C 469.70 341.85 456.47 337.05 443.36 332.65 C 437.21 330.84 434.11 322.96 437.39 317.44 Z" />
</g>
</svg>
