<?xml version="1.0" encoding="UTF-8" ?>
<!DOCTYPE svg PUBLIC "-//W3C//DTD SVG 1.1//EN" "http://www.w3.org/Graphics/SVG/1.1/DTD/svg11.dtd">
<svg width="512pt" height="512pt" viewBox="0 0 512 512" version="1.1" xmlns="http://www.w3.org/2000/svg">
<g id="#000000ff">
<path fill="#000000" opacity="1.00" d=" M 51.99 0.00 L 160.47 0.00 C 165.76 0.23 170.46 4.73 170.62 10.08 C 171.10 15.93 165.96 21.41 160.08 21.29 C 124.39 21.40 88.71 21.28 53.02 21.35 C 44.25 21.39 35.60 25.28 29.73 31.79 C 24.20 37.73 21.20 45.85 21.34 53.95 C 21.33 88.99 21.34 124.03 21.33 159.07 C 21.78 164.67 17.40 170.15 11.73 170.58 C 5.89 171.34 0.32 166.46 0.00 160.64 L 0.00 52.23 C 0.32 39.35 5.36 26.64 14.17 17.22 C 23.80 6.70 37.75 0.38 51.99 0.00 Z" />
<path fill="#000000" opacity="1.00" d=" M 351.39 0.00 L 459.82 0.00 C 472.94 0.34 485.88 5.59 495.36 14.71 C 505.58 24.32 511.61 38.07 512.00 52.08 L 512.00 160.42 C 511.75 164.59 509.05 168.55 505.06 169.96 C 500.49 171.77 494.85 169.86 492.32 165.65 C 490.22 162.49 490.71 158.53 490.66 154.94 C 490.68 121.27 490.67 87.59 490.66 53.92 C 491.07 40.11 481.52 26.80 468.28 22.83 C 462.72 20.95 456.79 21.36 451.02 21.33 C 417.99 21.30 384.96 21.39 351.94 21.29 C 346.05 21.43 340.89 15.93 341.38 10.07 C 341.54 4.78 346.15 0.31 351.39 0.00 Z" />
<path fill="#000000" opacity="1.00" d=" M 249.42 149.55 C 272.36 148.08 295.72 154.29 314.84 167.07 C 335.99 181.05 351.91 202.76 358.69 227.21 C 365.67 251.86 363.35 279.01 352.16 302.07 C 341.67 324.01 323.44 342.13 301.43 352.47 C 278.26 363.52 251.01 365.66 226.38 358.44 C 201.82 351.41 180.09 335.14 166.30 313.64 C 153.23 293.52 147.39 268.88 149.91 245.03 C 152.26 221.34 162.96 198.62 179.63 181.63 C 197.84 162.78 223.23 151.05 249.42 149.55 M 242.49 171.74 C 215.55 175.87 191.32 193.90 179.41 218.39 C 170.30 236.75 168.24 258.44 173.61 278.21 C 177.82 293.91 186.69 308.31 198.75 319.20 C 212.25 331.50 229.81 339.30 248.01 340.94 C 266.96 342.76 286.50 338.01 302.42 327.54 C 318.08 317.42 330.24 302.01 336.44 284.42 C 342.94 266.18 342.93 245.72 336.41 227.49 C 330.15 209.75 317.81 194.25 301.96 184.14 C 284.57 172.84 262.94 168.44 242.49 171.74 Z" />
<path fill="#000000" opacity="1.00" d=" M 7.70 341.78 C 12.37 340.33 17.81 342.63 20.05 346.98 C 21.73 350.04 21.28 353.65 21.34 357.01 C 21.32 390.69 21.34 424.36 21.34 458.03 C 21.15 467.11 25.02 476.17 31.78 482.25 C 37.73 487.76 45.84 490.79 53.94 490.66 C 89.32 490.70 124.70 490.61 160.08 490.71 C 165.95 490.57 171.08 496.04 170.62 501.88 C 170.47 507.20 165.84 511.69 160.58 512.00 L 52.23 512.00 C 37.67 511.67 23.40 505.14 13.71 494.26 C 5.23 484.94 0.37 472.55 0.00 459.97 L 0.00 351.44 C 0.28 347.03 3.40 342.94 7.70 341.78 Z" />
<path fill="#000000" opacity="1.00" d=" M 490.70 351.94 C 490.55 346.05 496.05 340.89 501.92 341.38 C 507.21 341.54 511.67 346.14 512.00 351.38 L 512.00 459.76 C 511.66 474.07 505.38 488.12 494.81 497.80 C 485.43 506.58 472.79 511.60 459.97 512.00 L 351.54 512.00 C 346.24 511.77 341.55 507.27 341.38 501.93 C 340.88 496.06 346.06 490.54 351.96 490.70 C 387.65 490.60 423.34 490.73 459.03 490.64 C 468.74 490.59 478.24 485.79 484.08 478.04 C 488.44 472.38 490.74 465.23 490.66 458.10 C 490.70 422.71 490.61 387.33 490.70 351.94 Z" />
</g>
</svg>
