<?xml version="1.0" encoding="UTF-8" ?>
<!DOCTYPE svg PUBLIC "-//W3C//DTD SVG 1.1//EN" "http://www.w3.org/Graphics/SVG/1.1/DTD/svg11.dtd">
<svg width="512pt" height="512pt" viewBox="0 0 512 512" version="1.1" xmlns="http://www.w3.org/2000/svg">
<g id="#000000ff">
<path fill="#000000" opacity="1.00" d=" M 51.87 0.00 L 203.77 0.00 C 209.13 0.66 213.61 5.51 213.29 10.99 C 213.28 16.81 207.84 21.69 202.07 21.32 C 152.02 21.40 101.98 21.23 51.94 21.40 C 35.47 21.71 21.09 36.59 21.35 53.06 C 21.31 188.07 21.34 323.07 21.34 458.08 C 21.21 466.17 24.22 474.28 29.74 480.22 C 35.83 486.97 44.88 490.82 53.96 490.66 C 160.33 490.66 266.71 490.68 373.08 490.66 C 382.58 490.75 391.99 486.37 397.99 478.99 C 402.86 473.16 405.43 465.57 405.33 457.99 C 405.36 415.63 405.29 373.26 405.36 330.91 C 405.10 325.13 410.21 319.87 416.00 320.03 C 421.81 319.87 426.91 325.17 426.64 330.96 C 426.69 373.32 426.67 415.68 426.65 458.04 C 426.84 473.10 420.33 488.07 409.11 498.13 C 399.69 506.80 387.05 511.70 374.28 512.00 L 52.05 512.00 C 38.05 511.61 24.32 505.54 14.71 495.34 C 5.66 485.95 0.42 473.13 0.00 460.12 L 0.00 52.02 C 0.39 38.03 6.43 24.28 16.66 14.70 C 26.07 5.68 38.86 0.42 51.87 0.00 Z" />
<path fill="#000000" opacity="1.00" d=" M 346.05 0.00 L 379.35 0.00 C 406.43 4.03 431.48 19.26 447.89 41.12 C 462.80 60.63 470.43 85.47 469.27 109.98 C 468.38 132.83 459.72 155.19 445.26 172.87 C 466.24 193.86 487.19 214.87 508.18 235.86 C 510.16 237.72 511.42 240.18 512.00 242.82 L 512.00 244.98 C 511.45 249.19 508.58 253.18 504.36 254.30 C 500.29 255.60 495.84 253.97 493.03 250.89 C 472.08 229.90 451.12 208.93 430.16 187.94 C 407.77 206.40 377.65 215.00 348.89 211.09 C 321.51 207.62 295.82 192.88 278.86 171.13 C 263.68 151.96 255.46 127.43 256.11 102.98 C 256.53 78.51 265.86 54.36 281.88 35.87 C 298.15 16.85 321.30 3.85 346.05 0.00 M 351.55 20.74 C 322.31 24.28 295.95 44.35 284.42 71.39 C 275.68 91.37 275.09 114.74 282.78 135.14 C 288.78 151.27 299.83 165.45 313.94 175.28 C 327.63 184.91 344.22 190.34 360.96 190.64 C 378.58 191.05 396.26 185.79 410.78 175.81 C 425.53 165.67 437.11 150.89 443.08 133.99 C 449.85 115.21 449.67 94.05 442.65 75.36 C 436.33 58.40 424.38 43.62 409.21 33.76 C 392.39 22.65 371.50 18.11 351.55 20.74 Z" />
<path fill="#000000" opacity="1.00" d=" M 64.03 330.90 C 63.80 325.44 68.37 320.31 73.86 320.09 C 79.88 319.86 85.92 320.07 91.95 320.00 C 99.47 320.18 107.07 319.47 114.53 320.75 C 128.38 323.23 140.59 333.14 145.96 346.14 C 151.39 358.79 150.10 374.06 142.58 385.60 C 135.38 397.06 122.45 404.64 108.92 405.23 C 101.06 405.47 93.20 405.26 85.34 405.34 C 85.26 416.24 85.46 427.16 85.25 438.07 C 85.06 443.75 79.60 448.46 73.96 447.94 C 68.45 447.70 63.79 442.61 64.03 437.10 C 63.98 401.70 63.98 366.30 64.03 330.90 M 85.34 341.34 C 85.33 355.55 85.33 369.77 85.34 383.99 C 92.56 383.98 99.78 384.05 107.00 383.97 C 114.39 383.93 121.54 379.67 125.16 373.25 C 129.06 366.60 128.89 357.82 124.72 351.34 C 121.00 345.29 114.09 341.38 106.98 341.35 C 99.77 341.29 92.55 341.35 85.34 341.34 Z" />
<path fill="#000000" opacity="1.00" d=" M 179.27 320.24 C 193.82 319.68 208.43 320.16 223.00 320.00 C 230.99 319.80 239.02 322.60 245.02 327.92 C 251.89 333.86 256.00 342.84 255.98 351.93 C 256.04 371.96 255.97 391.98 256.01 412.00 C 256.18 417.82 255.68 423.80 253.15 429.12 C 248.20 440.37 236.33 448.10 224.03 447.98 C 209.65 447.98 195.27 448.07 180.90 447.94 C 175.24 447.88 170.42 442.66 170.69 437.03 C 170.65 401.68 170.65 366.33 170.69 330.98 C 170.47 325.93 174.27 321.09 179.27 320.24 M 192.01 341.34 C 191.99 369.78 191.99 398.22 192.01 426.67 C 202.64 426.64 213.27 426.71 223.90 426.64 C 229.69 426.81 234.84 421.63 234.64 415.85 C 234.68 394.59 234.69 373.34 234.64 352.09 C 234.81 346.31 229.65 341.16 223.88 341.36 C 213.26 341.30 202.63 341.34 192.01 341.34 Z" />
<path fill="#000000" opacity="1.00" d=" M 277.38 350.92 C 277.53 334.74 291.76 320.36 307.93 320.06 C 322.66 319.94 337.39 319.98 352.12 320.04 C 357.86 319.94 362.92 325.19 362.63 330.92 C 362.63 336.51 357.61 341.42 352.01 341.29 C 337.66 341.43 323.30 341.22 308.94 341.39 C 303.39 341.41 298.56 346.46 298.70 352.00 C 298.61 362.66 298.70 373.33 298.67 383.99 C 315.79 384.00 332.91 384.01 350.03 383.98 C 352.56 383.97 355.24 384.11 357.44 385.53 C 361.65 387.92 363.69 393.40 362.11 397.97 C 360.77 402.26 356.50 405.34 352.01 405.30 C 334.23 405.42 316.45 405.25 298.67 405.38 C 298.61 416.23 298.78 427.09 298.59 437.95 C 298.46 443.80 292.72 448.67 286.92 447.91 C 281.56 447.49 277.14 442.48 277.36 437.10 C 277.30 408.37 277.26 379.65 277.38 350.92 Z" />
</g>
</svg>
