<svg xmlns="http://www.w3.org/2000/svg" version="1.1" xmlns:xlink="http://www.w3.org/1999/xlink" xmlns:svgjs="http://svgjs.com/svgjs" width="1112pt" height="1112pt"><svg width="1112pt" height="1112pt" viewBox="0 0 1112 1112" version="1.1" xmlns="http://www.w3.org/2000/svg">
<g id="SvgjsG1001">
<path fill="#000000" opacity="1.00" d=" M 0.00 0.00 L 1112.00 0.00 L 1112.00 1112.00 L 0.00 1112.00 L 0.00 0.00 M 452.11 186.48 C 437.18 188.87 425.16 202.82 425.12 217.96 C 425.08 321.64 425.13 425.32 425.10 529.00 C 424.74 536.53 429.72 543.88 436.84 546.35 C 487.58 564.60 538.33 582.82 589.07 601.08 C 593.01 602.43 596.88 604.21 601.06 604.68 C 609.38 605.02 617.65 599.15 619.43 590.91 C 620.74 583.65 619.63 576.24 620.03 568.93 C 620.10 493.27 620.04 417.63 620.05 341.98 C 619.85 300.21 620.33 258.43 619.91 216.66 C 635.07 216.64 650.23 216.66 665.40 216.65 C 665.41 328.78 665.36 440.90 665.42 553.02 C 665.26 558.67 670.32 563.82 676.01 563.51 C 681.53 563.62 686.43 558.54 686.21 553.04 C 686.19 439.69 686.23 326.33 686.19 212.98 C 685.89 204.03 678.06 196.16 669.08 195.95 C 652.69 195.79 636.30 195.99 619.90 195.85 C 620.06 189.56 620.21 183.25 619.90 176.96 C 619.57 166.28 608.23 157.89 597.92 160.57 C 549.34 169.34 500.70 177.78 452.11 186.48 M 187.16 674.27 C 187.16 683.57 187.17 692.88 187.16 702.19 C 167.84 702.25 148.52 702.08 129.21 702.28 C 119.47 702.82 108.53 704.08 101.38 711.47 C 94.78 718.55 94.06 728.86 93.81 738.05 C 94.07 749.68 92.61 761.89 97.18 772.92 C 100.09 779.96 106.90 784.60 114.12 786.37 C 127.46 789.79 141.34 788.18 154.95 788.56 C 168.14 788.39 182.65 789.69 194.28 782.24 C 203.21 776.34 205.00 764.80 205.32 754.93 C 205.43 728.04 205.32 701.16 205.37 674.28 C 199.30 674.25 193.23 674.27 187.16 674.27 M 615.57 705.60 C 605.78 725.69 596.71 746.13 586.91 766.21 C 577.47 744.85 568.01 723.50 558.62 702.12 C 552.25 702.08 545.88 702.11 539.52 702.10 C 550.88 727.87 562.20 753.65 573.56 779.42 C 575.06 782.75 576.23 786.50 579.24 788.84 C 584.58 792.65 592.92 790.47 595.70 784.49 C 605.31 764.26 614.96 744.05 624.49 723.78 C 632.79 741.29 640.34 759.18 648.35 776.84 C 650.57 781.51 652.00 787.41 657.22 789.66 C 662.65 792.53 669.63 789.24 671.97 783.84 C 684.56 756.60 697.14 729.35 709.71 702.10 C 703.46 702.10 697.21 702.10 690.97 702.10 C 681.09 723.53 671.22 744.96 661.31 766.37 C 653.01 747.50 644.64 728.67 636.34 709.81 C 634.97 706.72 633.58 703.29 630.57 701.44 C 625.52 698.80 618.10 700.03 615.57 705.60 M 257.21 702.27 C 249.45 702.69 241.37 703.59 234.49 707.49 C 229.38 710.38 225.68 715.40 224.07 721.02 C 220.97 731.39 222.07 742.35 221.86 753.02 C 222.11 762.18 222.92 772.45 229.58 779.43 C 236.42 786.38 246.68 787.79 255.96 788.41 C 268.32 788.74 280.69 788.47 293.05 788.56 C 303.06 788.28 313.99 787.61 322.24 781.27 C 329.56 775.55 331.36 765.74 331.82 757.00 C 332.12 747.17 332.42 737.27 331.16 727.49 C 330.22 720.35 327.30 713.01 321.21 708.75 C 313.63 703.46 304.05 702.59 295.08 702.22 C 282.46 702.20 269.83 702.11 257.21 702.27 M 384.24 702.31 C 374.60 702.90 363.74 704.37 356.88 711.92 C 350.66 719.02 349.97 729.03 349.72 738.03 C 349.95 749.40 348.61 761.26 352.75 772.13 C 355.40 779.23 361.95 784.18 369.12 786.11 C 380.77 789.49 393.03 788.35 404.99 788.56 C 416.53 788.38 428.31 789.38 439.59 786.36 C 445.71 784.75 451.64 781.30 454.96 775.75 C 459.08 768.96 459.58 760.74 459.84 753.00 C 459.77 742.92 460.50 732.66 458.08 722.78 C 456.73 717.09 453.51 711.72 448.60 708.43 C 440.79 703.27 431.11 702.50 422.01 702.20 C 409.42 702.25 396.83 702.05 384.24 702.31 M 502.13 703.54 C 495.15 704.92 488.15 708.10 483.87 713.99 C 478.86 720.88 477.81 729.74 477.77 738.03 C 477.78 754.87 477.78 771.71 477.77 788.55 C 483.82 788.57 489.88 788.54 495.93 788.57 C 495.97 771.69 495.91 754.82 495.96 737.94 C 496.18 732.67 496.21 726.90 499.41 722.43 C 501.78 719.10 505.94 717.85 509.82 717.42 C 517.47 716.62 525.18 717.02 532.86 716.93 C 532.86 712.01 532.85 707.10 532.86 702.19 C 522.62 702.41 512.24 701.45 502.13 703.54 M 761.62 701.96 C 761.60 706.35 761.61 710.75 761.61 715.15 C 769.75 715.18 777.90 715.09 786.04 715.19 C 790.84 715.37 796.25 715.46 800.03 718.86 C 804.40 722.91 804.30 729.39 804.38 734.90 C 783.59 734.91 762.79 734.90 742.00 734.90 C 732.54 734.89 722.13 734.42 713.98 740.04 C 708.18 743.96 706.78 751.41 706.84 757.94 C 706.93 765.37 705.95 773.77 710.83 780.03 C 716.37 786.90 725.89 788.13 734.15 788.52 C 752.62 788.55 771.09 788.64 789.56 788.47 C 799.18 787.93 810.40 786.93 816.83 778.77 C 823.56 769.68 822.47 757.69 822.59 747.01 C 822.29 736.23 824.14 724.45 818.20 714.78 C 813.28 706.38 803.19 703.29 794.07 702.41 C 783.28 701.52 772.43 702.13 761.62 701.96 M 867.14 703.10 C 859.68 704.26 851.98 707.11 847.13 713.17 C 841.78 719.80 840.56 728.66 840.41 736.92 C 840.38 754.13 840.41 771.35 840.40 788.56 C 846.46 788.55 852.53 788.55 858.60 788.56 C 858.62 771.38 858.56 754.19 858.63 737.01 C 858.84 731.96 859.02 726.42 862.18 722.21 C 864.69 718.91 868.95 717.76 872.90 717.37 C 880.41 716.65 887.97 717.01 895.51 716.93 C 895.50 712.01 895.51 707.09 895.50 702.18 C 886.05 702.40 876.52 701.60 867.14 703.10 M 912.23 712.27 C 905.98 721.17 906.91 732.68 906.82 743.02 C 907.08 754.17 905.34 766.42 911.64 776.35 C 917.37 785.32 928.71 787.86 938.64 788.42 C 949.72 788.73 960.81 788.46 971.90 788.56 C 971.91 783.64 971.90 778.71 971.91 773.79 C 960.91 773.69 949.90 773.98 938.91 773.62 C 934.70 773.35 929.57 772.92 927.13 768.94 C 924.49 764.11 925.17 758.36 925.04 753.06 C 955.88 753.07 986.73 753.07 1017.57 753.06 C 1017.58 745.38 1017.56 737.69 1017.58 730.01 C 1017.79 723.25 1017.46 715.68 1012.70 710.37 C 1006.53 703.55 996.71 702.09 987.99 701.97 C 971.63 702.04 955.27 701.75 938.93 702.13 C 929.42 702.67 918.39 704.11 912.23 712.27 Z"></path>
<path fill="#000000" opacity="1.00" d=" M 455.57 206.93 C 503.47 198.41 551.38 189.97 599.28 181.45 C 599.27 315.20 599.30 448.95 599.27 582.70 C 548.10 564.23 496.87 545.93 445.71 527.45 C 445.77 424.65 445.68 321.84 445.75 219.03 C 445.67 213.35 450.00 208.00 455.57 206.93 M 551.44 360.65 C 540.99 363.35 533.55 374.33 535.10 385.05 C 535.88 392.24 540.39 398.87 546.78 402.24 C 553.96 406.15 563.28 405.70 570.02 401.08 C 576.25 396.92 580.25 389.50 579.89 381.96 C 579.97 374.26 575.50 366.80 568.86 362.97 C 563.70 359.82 557.25 359.12 551.44 360.65 Z"></path>
<path fill="#000000" opacity="1.00" d=" M 554.45 375.61 C 559.71 372.86 566.40 378.54 564.65 384.18 C 563.60 389.22 556.74 391.71 552.86 388.19 C 548.45 385.10 549.45 377.55 554.45 375.61 Z"></path>
<path fill="#000000" opacity="1.00" d=" M 926.76 722.76 C 928.87 718.14 934.51 717.45 939.00 717.34 C 953.32 716.94 967.65 717.25 981.98 717.15 C 986.49 717.23 991.14 716.85 995.51 718.26 C 998.38 719.09 999.30 722.34 999.32 725.01 C 999.45 730.10 999.32 735.20 999.37 740.30 C 974.59 740.30 949.82 740.30 925.05 740.30 C 925.21 734.46 924.41 728.27 926.76 722.76 Z"></path>
<path fill="#000000" opacity="1.00" d=" M 117.07 721.11 C 121.36 717.98 126.96 718.11 132.03 717.82 C 150.40 717.69 168.78 717.80 187.16 717.76 C 187.13 729.83 187.23 741.91 187.11 753.99 C 186.82 758.69 186.81 763.92 183.77 767.83 C 180.46 771.86 174.88 772.49 170.02 772.81 C 159.01 773.23 148.00 772.99 136.99 773.02 C 131.07 772.79 124.85 773.23 119.30 770.80 C 115.09 768.97 113.11 764.38 112.59 760.08 C 111.59 752.08 112.10 743.99 112.11 735.96 C 112.39 730.78 112.70 724.65 117.07 721.11 Z"></path>
<path fill="#000000" opacity="1.00" d=" M 252.49 718.78 C 261.26 717.27 270.20 717.90 279.05 717.76 C 287.06 717.87 295.20 717.34 303.06 719.15 C 307.31 720.08 311.20 723.09 312.38 727.39 C 314.41 734.75 313.56 742.48 313.76 750.02 C 313.61 755.63 313.88 761.75 310.78 766.69 C 307.26 771.65 300.65 772.33 295.07 772.74 C 283.06 773.19 271.03 773.18 259.02 772.76 C 253.23 772.36 246.23 771.59 242.86 766.16 C 239.74 760.67 240.17 754.07 240.07 747.98 C 240.25 740.88 239.40 733.51 241.81 726.70 C 243.41 722.17 247.93 719.49 252.49 718.78 Z"></path>
<path fill="#000000" opacity="1.00" d=" M 380.47 718.75 C 389.90 717.21 399.49 717.94 409.00 717.76 C 416.63 717.87 424.45 717.39 431.89 719.43 C 435.82 720.50 439.20 723.52 440.28 727.52 C 442.23 734.83 441.44 742.47 441.62 749.95 C 441.48 755.38 441.69 761.22 439.00 766.13 C 436.15 770.89 430.23 772.10 425.12 772.56 C 415.75 773.27 406.34 772.99 396.95 773.03 C 390.44 772.83 383.76 773.16 377.46 771.22 C 373.80 770.09 370.67 767.28 369.50 763.60 C 367.35 756.96 368.04 749.87 367.91 743.01 C 367.97 737.33 367.72 731.38 369.95 726.05 C 371.71 721.80 376.12 719.44 380.47 718.75 Z"></path>
<path fill="#000000" opacity="1.00" d=" M 727.01 749.99 C 729.61 747.43 733.51 747.10 736.97 747.08 C 759.43 747.09 781.89 747.08 804.35 747.09 C 804.04 754.76 805.55 763.20 801.42 770.13 C 797.72 775.89 790.08 775.82 784.02 775.94 C 769.02 775.96 754.02 775.93 739.01 775.96 C 734.94 775.94 730.33 775.79 727.13 772.93 C 724.41 769.98 725.01 765.68 724.92 762.01 C 725.05 757.99 724.34 753.37 727.01 749.99 Z"></path>
</g>
<g id="SvgjsG1000">
<path fill="#ffffff" opacity="1.00" d=" M 452.11 186.48 C 500.70 177.78 549.34 169.34 597.92 160.57 C 608.23 157.89 619.57 166.28 619.90 176.96 C 620.21 183.25 620.06 189.56 619.90 195.85 C 636.30 195.99 652.69 195.79 669.08 195.95 C 678.06 196.16 685.89 204.03 686.19 212.98 C 686.23 326.33 686.19 439.69 686.21 553.04 C 686.43 558.54 681.53 563.62 676.01 563.51 C 670.32 563.82 665.26 558.67 665.42 553.02 C 665.36 440.90 665.41 328.78 665.40 216.65 C 650.23 216.66 635.07 216.64 619.91 216.66 C 620.33 258.43 619.85 300.21 620.05 341.98 C 620.04 417.63 620.10 493.27 620.03 568.93 C 619.63 576.24 620.74 583.65 619.43 590.91 C 617.65 599.15 609.38 605.02 601.06 604.68 C 596.88 604.21 593.01 602.43 589.07 601.08 C 538.33 582.82 487.58 564.60 436.84 546.35 C 429.72 543.88 424.74 536.53 425.10 529.00 C 425.13 425.32 425.08 321.64 425.12 217.96 C 425.16 202.82 437.18 188.87 452.11 186.48 M 455.57 206.93 C 450.00 208.00 445.67 213.35 445.75 219.03 C 445.68 321.84 445.77 424.65 445.71 527.45 C 496.87 545.93 548.10 564.23 599.27 582.70 C 599.30 448.95 599.27 315.20 599.28 181.45 C 551.38 189.97 503.47 198.41 455.57 206.93 Z"></path>
<path fill="#ffffff" opacity="1.00" d=" M 551.44 360.65 C 557.25 359.12 563.70 359.82 568.86 362.97 C 575.50 366.80 579.97 374.26 579.89 381.96 C 580.25 389.50 576.25 396.92 570.02 401.08 C 563.28 405.70 553.96 406.15 546.78 402.24 C 540.39 398.87 535.88 392.24 535.10 385.05 C 533.55 374.33 540.99 363.35 551.44 360.65 M 554.45 375.61 C 549.45 377.55 548.45 385.10 552.86 388.19 C 556.74 391.71 563.60 389.22 564.65 384.18 C 566.40 378.54 559.71 372.86 554.45 375.61 Z"></path>
<path fill="#ffffff" opacity="1.00" d=" M 187.16 674.27 C 193.23 674.27 199.30 674.25 205.37 674.28 C 205.32 701.16 205.43 728.04 205.32 754.93 C 205.00 764.80 203.21 776.34 194.28 782.24 C 182.65 789.69 168.14 788.39 154.95 788.56 C 141.34 788.18 127.46 789.79 114.12 786.37 C 106.90 784.60 100.09 779.96 97.18 772.92 C 92.61 761.89 94.07 749.68 93.81 738.05 C 94.06 728.86 94.78 718.55 101.38 711.47 C 108.53 704.08 119.47 702.82 129.21 702.28 C 148.52 702.08 167.84 702.25 187.16 702.19 C 187.17 692.88 187.16 683.57 187.16 674.27 M 117.07 721.11 C 112.70 724.65 112.39 730.78 112.11 735.96 C 112.10 743.99 111.59 752.08 112.59 760.08 C 113.11 764.38 115.09 768.97 119.30 770.80 C 124.85 773.23 131.07 772.79 136.99 773.02 C 148.00 772.99 159.01 773.23 170.02 772.81 C 174.88 772.49 180.46 771.86 183.77 767.83 C 186.81 763.92 186.82 758.69 187.11 753.99 C 187.23 741.91 187.13 729.83 187.16 717.76 C 168.78 717.80 150.40 717.69 132.03 717.82 C 126.96 718.11 121.36 717.98 117.07 721.11 Z"></path>
<path fill="#ffffff" opacity="1.00" d=" M 615.57 705.60 C 618.10 700.03 625.52 698.80 630.57 701.44 C 633.58 703.29 634.97 706.72 636.34 709.81 C 644.64 728.67 653.01 747.50 661.31 766.37 C 671.22 744.96 681.09 723.53 690.97 702.10 C 697.21 702.10 703.46 702.10 709.71 702.10 C 697.14 729.35 684.56 756.60 671.97 783.84 C 669.63 789.24 662.65 792.53 657.22 789.66 C 652.00 787.41 650.57 781.51 648.35 776.84 C 640.34 759.18 632.79 741.29 624.49 723.78 C 614.96 744.05 605.31 764.26 595.70 784.49 C 592.92 790.47 584.58 792.65 579.24 788.84 C 576.23 786.50 575.06 782.75 573.56 779.42 C 562.20 753.65 550.88 727.87 539.52 702.10 C 545.88 702.11 552.25 702.08 558.62 702.12 C 568.01 723.50 577.47 744.85 586.91 766.21 C 596.71 746.13 605.78 725.69 615.57 705.60 Z"></path>
<path fill="#ffffff" opacity="1.00" d=" M 257.21 702.27 C 269.83 702.11 282.46 702.20 295.08 702.22 C 304.05 702.59 313.63 703.46 321.21 708.75 C 327.30 713.01 330.22 720.35 331.16 727.49 C 332.42 737.27 332.12 747.17 331.82 757.00 C 331.36 765.74 329.56 775.55 322.24 781.27 C 313.99 787.61 303.06 788.28 293.05 788.56 C 280.69 788.47 268.32 788.74 255.96 788.41 C 246.68 787.79 236.42 786.38 229.58 779.43 C 222.92 772.45 222.11 762.18 221.86 753.02 C 222.07 742.35 220.97 731.39 224.07 721.02 C 225.68 715.40 229.38 710.38 234.49 707.49 C 241.37 703.59 249.45 702.69 257.21 702.27 M 252.49 718.78 C 247.93 719.49 243.41 722.17 241.81 726.70 C 239.40 733.51 240.25 740.88 240.07 747.98 C 240.17 754.07 239.74 760.67 242.86 766.16 C 246.23 771.59 253.23 772.36 259.02 772.76 C 271.03 773.18 283.06 773.19 295.07 772.74 C 300.65 772.33 307.26 771.65 310.78 766.69 C 313.88 761.75 313.61 755.63 313.76 750.02 C 313.56 742.48 314.41 734.75 312.38 727.39 C 311.20 723.09 307.31 720.08 303.06 719.15 C 295.20 717.34 287.06 717.87 279.05 717.76 C 270.20 717.90 261.26 717.27 252.49 718.78 Z"></path>
<path fill="#ffffff" opacity="1.00" d=" M 384.24 702.31 C 396.83 702.05 409.42 702.25 422.01 702.20 C 431.11 702.50 440.79 703.27 448.60 708.43 C 453.51 711.72 456.73 717.09 458.08 722.78 C 460.50 732.66 459.77 742.92 459.84 753.00 C 459.58 760.74 459.08 768.96 454.96 775.75 C 451.64 781.30 445.71 784.75 439.59 786.36 C 428.31 789.38 416.53 788.38 404.99 788.56 C 393.03 788.35 380.77 789.49 369.12 786.11 C 361.95 784.18 355.40 779.23 352.75 772.13 C 348.61 761.26 349.95 749.40 349.72 738.03 C 349.97 729.03 350.66 719.02 356.88 711.92 C 363.74 704.37 374.60 702.90 384.24 702.31 M 380.47 718.75 C 376.12 719.44 371.71 721.80 369.95 726.05 C 367.72 731.38 367.97 737.33 367.91 743.01 C 368.04 749.87 367.35 756.96 369.50 763.60 C 370.67 767.28 373.80 770.09 377.46 771.22 C 383.76 773.16 390.44 772.83 396.95 773.03 C 406.34 772.99 415.75 773.27 425.12 772.56 C 430.23 772.10 436.15 770.89 439.00 766.13 C 441.69 761.22 441.48 755.38 441.62 749.95 C 441.44 742.47 442.23 734.83 440.28 727.52 C 439.20 723.52 435.82 720.50 431.89 719.43 C 424.45 717.39 416.63 717.87 409.00 717.76 C 399.49 717.94 389.90 717.21 380.47 718.75 Z"></path>
<path fill="#ffffff" opacity="1.00" d=" M 502.13 703.54 C 512.24 701.45 522.62 702.41 532.86 702.19 C 532.85 707.10 532.86 712.01 532.86 716.93 C 525.18 717.02 517.47 716.62 509.82 717.42 C 505.94 717.85 501.78 719.10 499.41 722.43 C 496.21 726.90 496.18 732.67 495.96 737.94 C 495.91 754.82 495.97 771.69 495.93 788.57 C 489.88 788.54 483.82 788.57 477.77 788.55 C 477.78 771.71 477.78 754.87 477.77 738.03 C 477.81 729.74 478.86 720.88 483.87 713.99 C 488.15 708.10 495.15 704.92 502.13 703.54 Z"></path>
<path fill="#ffffff" opacity="1.00" d=" M 761.62 701.96 C 772.43 702.13 783.28 701.52 794.07 702.41 C 803.19 703.29 813.28 706.38 818.20 714.78 C 824.14 724.45 822.29 736.23 822.59 747.01 C 822.47 757.69 823.56 769.68 816.83 778.77 C 810.40 786.93 799.18 787.93 789.56 788.47 C 771.09 788.64 752.62 788.55 734.15 788.52 C 725.89 788.13 716.37 786.90 710.83 780.03 C 705.95 773.77 706.93 765.37 706.84 757.94 C 706.78 751.41 708.18 743.96 713.98 740.04 C 722.13 734.42 732.54 734.89 742.00 734.90 C 762.79 734.90 783.59 734.91 804.38 734.90 C 804.30 729.39 804.40 722.91 800.03 718.86 C 796.25 715.46 790.84 715.37 786.04 715.19 C 777.90 715.09 769.75 715.18 761.61 715.15 C 761.61 710.75 761.60 706.35 761.62 701.96 M 727.01 749.99 C 724.34 753.37 725.05 757.99 724.92 762.01 C 725.01 765.68 724.41 769.98 727.13 772.93 C 730.33 775.79 734.94 775.94 739.01 775.96 C 754.02 775.93 769.02 775.96 784.02 775.94 C 790.08 775.82 797.72 775.89 801.42 770.13 C 805.55 763.20 804.04 754.76 804.35 747.09 C 781.89 747.08 759.43 747.09 736.97 747.08 C 733.51 747.10 729.61 747.43 727.01 749.99 Z"></path>
<path fill="#ffffff" opacity="1.00" d=" M 867.14 703.10 C 876.52 701.60 886.05 702.40 895.50 702.18 C 895.51 707.09 895.50 712.01 895.51 716.93 C 887.97 717.01 880.41 716.65 872.90 717.37 C 868.95 717.76 864.69 718.91 862.18 722.21 C 859.02 726.42 858.84 731.96 858.63 737.01 C 858.56 754.19 858.62 771.38 858.60 788.56 C 852.53 788.55 846.46 788.55 840.40 788.56 C 840.41 771.35 840.38 754.13 840.41 736.92 C 840.56 728.66 841.78 719.80 847.13 713.17 C 851.98 707.11 859.68 704.26 867.14 703.10 Z"></path>
<path fill="#ffffff" opacity="1.00" d=" M 912.23 712.27 C 918.39 704.11 929.42 702.67 938.93 702.13 C 955.27 701.75 971.63 702.04 987.99 701.97 C 996.71 702.09 1006.53 703.55 1012.70 710.37 C 1017.46 715.68 1017.79 723.25 1017.58 730.01 C 1017.56 737.69 1017.58 745.38 1017.57 753.06 C 986.73 753.07 955.88 753.07 925.04 753.06 C 925.17 758.36 924.49 764.11 927.13 768.94 C 929.57 772.92 934.70 773.35 938.91 773.62 C 949.90 773.98 960.91 773.69 971.91 773.79 C 971.90 778.71 971.91 783.64 971.90 788.56 C 960.81 788.46 949.72 788.73 938.64 788.42 C 928.71 787.86 917.37 785.32 911.64 776.35 C 905.34 766.42 907.08 754.17 906.82 743.02 C 906.91 732.68 905.98 721.17 912.23 712.27 M 926.76 722.76 C 924.41 728.27 925.21 734.46 925.05 740.30 C 949.82 740.30 974.59 740.30 999.37 740.30 C 999.32 735.20 999.45 730.10 999.32 725.01 C 999.30 722.34 998.38 719.09 995.51 718.26 C 991.14 716.85 986.49 717.23 981.98 717.15 C 967.65 717.25 953.32 716.94 939.00 717.34 C 934.51 717.45 928.87 718.14 926.76 722.76 Z"></path>
</g>
</svg><style>@media (prefers-color-scheme: light) { :root { filter: none; } }
@media (prefers-color-scheme: dark) { :root { filter: contrast(1) brightness(1); } }
</style></svg>