<?xml version="1.0" encoding="utf-8"?>
<!-- Generator: Adobe Illustrator 27.9.0, SVG Export Plug-In . SVG Version: 6.00 Build 0)  -->
<svg version="1.1" id="Layer_1" xmlns="http://www.w3.org/2000/svg" xmlns:xlink="http://www.w3.org/1999/xlink" x="0px" y="0px"
	 viewBox="0 0 122.9 115.8" style="enable-background:new 0 0 122.9 115.8;" xml:space="preserve">
<style type="text/css">
	.st0{fill:#010101;}
	.st1{fill:#020202;}
</style>
<g>
	<path d="M119.8,103.6c-2.3,0-4.6,0-7,0c-0.6,0-0.9-0.1-1-0.7c-0.6-2.8-2.4-4.5-4.9-5.7c-1.3-0.6-2.6-0.9-4.1-1.3
		c2.3-3.3,3.7-6.8,4.3-10.6c0.6-3.8,0.8-7.5-0.5-11.3c1.2,0.2,2.2,0.4,3.2,0.5c4.7,0.1,7.9-2.5,10.4-6.2c1.3-1.9,1.5-3.9,0.5-6
		c-1.8-4.1-3.6-8.3-5.4-12.4c-0.6-1.5-1.4-2.9-2.3-4.3c-4.2-6.3-9.8-10.1-17.7-9.6c-0.6,0-0.7-0.3-0.9-0.8c-0.9-3-2-5.9-3.1-8.8
		c-3.6-8.8-8.9-16.4-15.7-23c-1.4-1.3-2.9-2.6-4.7-3.2c-2-0.7-3.5,0.2-3.8,2.3c-0.3,1.8,0,3.5,0.4,5.2c1.1,5.1,3.4,9.8,5.8,14.4
		c0.2,0.4,0.6,0.7,0.4,1.2c-0.3,0.1-0.5-0.1-0.6-0.3c-4.9-3.5-10.3-6-15.9-8.1c-2.4-0.9-4.9-1.7-7.6-1.6c-2.7,0.1-3.8,1.8-2.8,4.3
		c0.2,0.6,0.5,1.1,0.8,1.6c2.1,3.4,4.9,6,8,8.5c6.6,5.3,13.8,9.7,21.2,13.9c0.8,0.5,1.6,0.9,2.4,1.4c-3.2,3.5-5.1,7.6-5.7,12.2
		c-0.1,0.5-0.3,0.7-0.8,0.7C67.3,56.3,62,57.4,57,60.2c0-1.8-0.1-3.4,0-5.1c0.1-1.1-0.3-1.6-1.3-2c-8.5-3.1-17-6.3-25.4-9.5
		c-0.7-0.3-1.3-0.3-2,0c-8.5,3.2-17,6.4-25.5,9.6C1.8,53.6,1.5,54,1.5,55c0,8,0,16,0,24c0,4.2,0.6,8.3,2,12.2
		c4.3,12.2,13.2,19.9,25,24.5c0.5,0.2,0.9,0.2,1.4,0c6.2-1.7,11.7-4.9,16.3-9.4c0.6-0.6,1.2-0.8,2-0.8c20.6,0,41.1,0,61.7,0
		c3.3,0,6.5,0,9.8,0c0.7,0,1.6,0.1,1.6-0.9C121.4,103.5,120.5,103.6,119.8,103.6z M119.2,63.4c0.8,1.4,0.5,2.6-0.5,4
		C118.4,65.8,118.5,64.6,119.2,63.4z M69.8,9.2c-0.5-1.7-0.9-3.4-0.9-5.4c0,0,0,0,0,0c0,0.1,0,0.1,0,0c0,0,0,0,0,0c0,0,0,0,0,0
		c0,0,0,0,0,0c0-2.2,0.7-2.6,2.6-1.4c3,1.8,5.2,4.4,7.4,7c6.7,7.6,11,16.5,13.9,26.1c0.2,0.7,0,0.9-0.6,1c-0.4,0-0.7,0.1-1.1,0.3
		c-1.8,1-2.8,0.2-4-1.2c-2.5-2.9-5.3-5.5-8.2-8c-0.6-0.5-1-1-1.4-1.7C74.4,20.5,71.6,15.1,69.8,9.2z M30.1,113.8
		c-0.5,0.1-1,0.2-1.4,0c-11.2-4.6-19.6-11.9-23.6-23.6c-1.4-4.1-1.8-8.2-1.8-12.5c0-2.9,0-5.9,0-8.8c0-4.3,0-8.6,0-12.9
		c0-0.8,0.2-1.1,0.9-1.4c8.1-3,16.2-6.1,24.3-9.1c0.6-0.2,1.1-0.2,1.6,0c8.1,3,16.2,6.1,24.3,9.1c0.7,0.3,0.9,0.6,0.9,1.3
		c0,7.5,0,15,0,22.5c0,8-1.7,15.5-6.3,22.2C44.3,107.3,37.9,111.5,30.1,113.8z M109.3,103.7c-4.6,0-9.2,0-13.8,0
		c-0.6,0-0.8-0.2-0.9-0.8c-0.9-4.5-3.7-6.7-8.3-6.6c-2.4,0.1-4.9,0.3-7.3,0.5c-0.3,0-0.6,0.1-1-0.1c1.8-2.2,3.1-4.6,3.6-7.5
		c1.1-6.7-2.4-13.4-8.5-16.7c-2.5-1.3-5.1-2-7.9-2.2c-0.7,0-1.4-0.1-1.5,0.8c-0.1,0.9,0.7,0.9,1.4,1c6.1,0.7,11.1,3.1,13.8,9
		c2.5,5.4,1.3,11.1-3.1,15.4c-0.2,0.2-0.4,0.3-0.5,0.5c-0.4,0.4-0.8,0.7-0.5,1.3c0.3,0.5,0.8,0.5,1.3,0.5c3.2-0.2,6.5-0.5,9.7-0.7
		c0.9-0.1,1.9-0.1,2.8,0.1c2.3,0.5,4.1,2.6,4.4,4.9c0,0.4,0,0.6-0.5,0.6c-0.2,0-0.3,0-0.5,0c-14.1,0-28.2,0-42.3,0
		c-0.2,0-0.5,0-0.9,0C54.8,96,57,87.4,57,78.2c0-5,0-9.9,0-14.9c0-0.8,0.3-1.2,1-1.6C62.8,59,68,58,73.5,57.8c1.3,0,1.7-0.5,1.8-1.7
		c0.4-4.2,2-7.8,4.7-11.1c0.7-0.9,1.3-0.9,2.2-0.3c1,0.7,2.1,1.2,3.2,1.7c0.6,0.3,1.2,0.7,1.7-0.1c0.5-0.8-0.3-1.1-0.8-1.4
		c-6.4-3.4-12.8-7-18.9-10.9c-4.8-3.1-9.5-6.3-13.7-10.2c-1.8-1.7-3.5-3.6-4.8-5.8c-0.4-0.7-0.9-1.4-0.5-2.2
		c0.5-0.8,1.4-0.6,2.2-0.5c3.7,0.4,7.1,1.8,10.4,3.2c10.4,4.4,18.7,11.5,26.1,19.8c1.3,1.4,2.4,3,3.6,4.4c0.4,0.5,0.8,1.2,1.6,0.6
		c0.7-0.6,0.2-1.2-0.2-1.7c-0.7-0.9-1.4-1.7-2.1-2.7c6.4-1.9,12.2-1.5,17.4,2.9c3.2,2.7,5.3,6.2,6.9,10.1c1.2,2.9,2.3,5.9,3.8,8.7
		c0.2,0.5,0.2,0.8-0.1,1.2c-1.3,2.1-1.6,4.3-0.8,6.7c0.5,1.4-0.9,1.6-1.5,2.3c-0.6,0.7-1,0-1.4-0.3c-0.6-0.4-1.2-0.9-1.9-1.4
		c-0.4-0.3-0.9-0.4-1.3,0c-0.4,0.5-0.2,1,0.3,1.4c0.6,0.5,1.3,1,2,1.5c-1.9,0.9-3.6,0.8-5.4,0.4c-4.8-1.1-9.1-3.2-13.2-5.8
		c-0.2-0.1-0.4-0.3-0.6-0.4c-0.5-0.4-1-0.4-1.4,0.2c-0.4,0.5-0.1,1,0.3,1.2c1.1,0.7,2.2,1.5,3.4,2.2c1.9,1.1,3.8,2.1,5.8,2.7
		c1.7,0.5,2.4,1.7,2.9,3.2c0.8,3,0.7,6,0.2,9c-0.7,4.2-2.2,8-4.9,11.2c-0.7,0.9-0.4,1.5,0.7,1.7c1.9,0.3,3.9,0.6,5.6,1.6
		c1.5,0.8,2.6,2,3.1,3.6C110.1,103.3,110.1,103.7,109.3,103.7z"/>
	<path class="st0" d="M105.5,48.3c-2.7,0-4.9,2.1-4.9,4.8c0,2.7,2.2,4.9,4.9,4.9c2.7,0,4.9-2.2,4.9-4.9
		C110.4,50.5,108.2,48.3,105.5,48.3z M105.5,56.3c-1.7,0-3.1-1.3-3.1-3.1c0-1.7,1.3-3.1,3.1-3.1c1.7,0,3.1,1.4,3.1,3.1
		C108.6,54.9,107.2,56.3,105.5,56.3z"/>
	<path d="M49.6,67.8c-1.4-1.4-2.8-2.8-4.1-4.1c-1.2-1.2-1.3-1.2-2.5,0C36.9,69.6,31,75.5,25.1,81.5c-0.6,0.6-1,0.8-1.7,0
		c-2-2.1-4.1-4.1-6.1-6.2c-0.7-0.7-1.3-0.7-1.9,0c-1.5,1.5-3,3-4.5,4.5c-0.7,0.7-0.7,1.2,0,1.9c4.1,4.1,8.3,8.2,12.4,12.4
		c0.7,0.7,1.2,0.8,2,0c8.1-8.2,16.3-16.3,24.4-24.5c0.3-0.3,0.5-0.5,0.5-1C50.2,68.3,49.8,68.1,49.6,67.8z M47.5,69.4
		C39.9,76.9,32.4,84.4,24.8,92c-0.2,0.2-0.3,0.5-0.7,0.5c-0.1-0.1-0.3-0.3-0.5-0.5c-3.6-3.6-7.1-7.1-10.7-10.7c-0.4-0.4-0.4-0.6,0-1
		c1-0.9,1.9-1.9,2.8-2.9c0.5-0.5,0.7-0.3,1.1,0.1c2,2,4,4,6,6c1.3,1.3,1.4,1.3,2.7,0c5.9-5.9,11.9-11.8,17.8-17.8
		c0.7-0.7,1.1-0.7,1.7,0c0.8,0.9,1.6,1.7,2.5,2.5C48,68.7,47.9,68.9,47.5,69.4z"/>
	<path class="st1" d="M103.8,52.7c0.6,0.2,1,0.5,1.4,0c0.4-0.4,0.1-0.9,0-1.4c1.1-0.2,1.9,0.3,2.2,1.3c0.2,0.5,0.5,1.5-0.8,1.4
		c-0.1,0-0.4,0.1-0.4,0.2c-0.1,0.6-0.4,0.9-1,0.7c-0.7-0.2-1.2-0.6-1.4-1.3C103.8,53.4,103.9,53.1,103.8,52.7z"/>
</g>
</svg>
