<?xml version="1.0" encoding="utf-8"?>
<!-- Generator: Adobe Illustrator 27.9.0, SVG Export Plug-In . SVG Version: 6.00 Build 0)  -->
<svg version="1.1" id="Layer_1" xmlns="http://www.w3.org/2000/svg" xmlns:xlink="http://www.w3.org/1999/xlink" x="0px" y="0px"
	 viewBox="0 0 122.9 115.8" style="enable-background:new 0 0 122.9 115.8;" xml:space="preserve">
<g>
	<path d="M119.4,57.9c0-5.1-0.7-10.2-2-15.1c-1.3-4.7-3.2-9.3-5.6-13.6c-4.8-8.4-11.7-15.6-20-20.7C82.7,2.9,72.2,0,61.5,0
		c0,0,0,0,0,0c0,0,0,0,0,0c0,0,0,0,0,0c-6.8,0-13.5,1.2-19.9,3.5c-6.1,2.2-11.8,5.5-16.9,9.7c-4.5,3.7-8.5,8.1-11.7,13
		c-6.2,9.4-9.5,20.4-9.5,31.8c0,0,0,0.1,0,0.1h0v0.1l0,0c0,7.8,1.6,15.3,4.6,22.4c2.9,6.9,7.1,13.1,12.4,18.4
		c5.3,5.3,11.5,9.5,18.4,12.4c7.1,3,14.7,4.6,22.6,4.6c0,0,0,0,0,0c0,0,0,0,0,0c0,0,0,0,0,0c7.8,0,15.4-1.5,22.5-4.5
		c6.9-2.9,13.1-7.1,18.4-12.4c5.3-5.3,9.5-11.5,12.4-18.3c3-7.1,4.6-14.7,4.6-22.5c0,0,0,0,0-0.1l0,0V58h0
		C119.4,58,119.4,57.9,119.4,57.9z M16.9,52.8c-0.1-0.5-0.1-1,0-1.5c0.2-0.8,0.7-1.2,1.3-1.4c-0.2,1.6-0.3,3.2-0.3,4.8
		C17.4,54.1,17.1,53.5,16.9,52.8z M33.4,13.5c-0.2,0.2-0.3,0.4-0.5,0.6c-0.7,0.3-1.4,0.7-2.2,0.9c-1.9,0.5-3.8-0.3-5.6-1.4
		c1.4-1.1,2.8-2.2,4.2-3.1C30.4,11.5,31.7,12.5,33.4,13.5z M50.4,103.9c-0.4-0.5-0.8-1-1.2-1.4c-0.4-1-0.8-2.1-1.2-3.2
		c4.3,0.5,8.8,0.8,13.2,0.8v15.3c-2.5-0.1-4.9-1.6-7.2-4.4c-1.3-1.6-2.5-3.5-3.6-5.8c0,0,0,0,0,0C50.7,104.7,50.7,104.2,50.4,103.9z
		 M41.9,57.9c0-3.5,0.1-6.9,0.3-10.3c0.3,0.1,0.7,0.1,1,0.1C49,48.5,55,49,61.2,49v25.6c-1.6,0-3.2,0-4.8-0.1
		c-3.1-1.2-6.3-2.4-9.4-3.6c-0.2-0.1-0.5-0.2-0.7-0.4c-0.4-0.4-0.3-1-0.5-1.5c-0.2-0.3-0.5-0.6-0.8-0.8c-0.9-0.7-1.9-1.2-2.9-1.7
		C42,63.6,41.9,60.8,41.9,57.9z M38.9,17.1c-0.1-0.4-0.4-0.7-0.8-0.8c-0.6-0.3-1.4-0.1-2,0c-0.6-0.2-0.3-1-0.3-1.6
		c1.7,0.8,3.7,1.5,5.9,2.1c0.4,0.1,0.7,0.2,1.1,0.3c-0.6,1-1,2.1-1.4,3.3c0,0.2-0.1,0.3,0,0.5c0.1,0.2,0.3,0.2,0.4,0.3
		c0.7,0.2,1.5,0.4,2.2,0.5c0.5,0.1,1.1,0.2,1.6,0c0.1,0,0.1,0,0.2-0.1c-0.4,1.3-0.7,2.6-1,3.9c-1.4-1.3-3.5-1.7-5.4-1.4
		c-1.1,0.2-2.2,0.6-2.9,1.4c-0.7,0.9-0.9,2-1.3,3c-0.5,1-1.3,1.9-2.2,2.4c-0.2,0.1-0.4,0.2-0.6,0.2c-0.1,0-0.3-0.1-0.4-0.2
		c-1.2-1-2.3-2.3-2.5-3.9c-0.2-2.2,1.5-4.1,3.3-5.3c1.8-1.2,4-1.9,5.6-3.5C38.8,18,39.1,17.7,38.9,17.1z M46.4,19.6
		c-0.1-0.5,0-1.1,0.2-1.6c0.1,0,0.2,0,0.3,0.1C46.7,18.5,46.5,19,46.4,19.6z M31.1,41.9c1.2-2.2,4.1-2.5,6.5-3.2
		c1.2-0.3,2.3-0.8,3.4-1.4c0.4-0.2,0.7-0.5,0.8-0.9c0.4-0.8-0.2-1.1-0.4-1.5c-0.4-0.8,0.2-1.8,0.9-2.3c0.4-0.2,0.8-0.4,1.1-0.5
		c-0.8,4.7-1.4,9.7-1.7,14.8c-4.1-0.6-7.9-1.5-11.4-2.5C30.5,43.6,30.7,42.7,31.1,41.9z M44.1,31.9c0.2-0.1,0.5-0.2,0.7-0.4
		c1.7-1.2,1.7-3.8,0.5-5.4c0.6-2.8,1.4-5.5,2.2-7.9c0.8,0.1,1.6,0.3,2.5,0.4c0.2,0.7,0.7,1.3,1.2,1.8c0.8,0.6,1.8,1,2.7,1.4
		c0.7,0.4,1.5,0.8,2.2,0.6c0.8-0.3,1-1.2,1.2-2.1c0.1-0.3,0.1-0.7,0.2-1c1.2,0.1,2.5,0.1,3.8,0.1v29C55,48.4,49,48,43.3,47.2
		c-0.4,0-0.7-0.1-1.1-0.2C42.6,41.8,43.2,36.7,44.1,31.9z M50.9,9.8c0,0,0.1,0.1,0.1,0.1c0.1,0.1,0.1,0.3,0.1,0.4
		c0,0.8-0.2,1.7-0.6,2.4c-0.4,0.7-0.9,1.3-0.7,2.1c0.1,0.4,0.4,0.8,0.5,1.2c0.1,0.6-0.3,1.1-0.4,1.6c0,0.1,0,0.2,0,0.3
		c-0.8-0.1-1.5-0.2-2.2-0.4c0.5-1.5,1-2.9,1.6-4.2C49.7,12.1,50.3,10.9,50.9,9.8z M106.4,34.7c0.1,0.4,0.2,0.7,0.4,1
		c0.3,0.6,0.4,1.3,0.2,1.9c-0.2,0.6-1,1-1.6,0.7c-0.3-0.1-0.4-0.4-0.6-0.7c-0.6-1.3-0.4-3-1.3-4.1c-0.7-0.8-1.8-1-2.5-1.8
		c-0.6-0.7-0.7-1.9-0.1-2.7c0.6-0.8,1.7-1.1,2.6-0.7c0.1,0.1,0.2,0.1,0.4,0.2c0.5,0.4,1.2,0.7,1.8,0.8c0.3,0.1,0.6,0.2,0.8,0.5
		c0.3,0.4,0.3,1,0.3,1.5c0,0.6-0.1,1.3-0.2,1.9C106.4,33.8,106.3,34.2,106.4,34.7z M91.8,37.6c0.3,0.2,0.8-0.1,0.9-0.5
		c0.1-0.4,0.2-0.8,0.5-1.1c0.4-0.4,1.2-0.1,1.5,0.4c0.4,0.5,0.5,1.1,0.9,1.5c0.5,0.6,1.2,0.9,1.9,1c0.7,0.1,1.5-0.1,2.2-0.2
		c0.1,0,0.3-0.1,0.3,0c0.1,0.1,0.1,0.1,0.1,0.2c0.2,0.9,0.1,1.9-0.1,2.8c0,0.1,0,0.2-0.1,0.3c-0.6,0.3-1.3,0.5-1.9,0.8
		c-1.4-0.5-2.5-1.2-3.8-1.6C94,41,93.6,40.9,93.3,41c-0.4,0.1-0.7,0.4-1,0.7c-1.1,1-2.7,1.2-4,0.7c-0.9-0.4-1.7-1.2-2-2.1
		c-0.3-0.7-0.9-1.1-1.7-1c-1.4,0.2-2.7,0.4-4.1,0.6c-0.2-1.6-0.4-3.1-0.6-4.6c0.4-0.4,0.7-0.9,1.2-1.2c0.7-0.5,1.6-0.7,2.3-0.2
		c0.3,0.2,0.5,0.6,0.8,0.8c0.3,0.2,0.7,0.4,1.1,0.3c0.4-0.1,0.7-0.4,0.7-0.8c0-0.2,0-0.4,0-0.6c0-0.5,0.5-1,1.1-1
		c0.5-0.1,1.1,0.1,1.5,0.4c1.5,1,2.1,2.9,3.1,4.4C91.6,37.5,91.7,37.6,91.8,37.6z M76.7,19.1c0.2,0.9,1,1.6,1.7,2.3
		c0.1,0.1,0.2,0.2,0.3,0.2c0.4,0.1,0.7-0.2,1.1-0.3c0.3-0.1,0.6,0,0.9,0c0.3,0.1,0.6,0.1,0.8,0.3c0.3,0.2,0.4,0.7,0.4,1.1v0
		c0,0.3-0.2,0.5-0.5,0.5c-1,0.1-1.6,0.7-2.1,1.2c-0.4,0.5-0.7,1.1-1,1.7c-0.6-2.9-1.4-5.5-2.2-8c0.2,0,0.4-0.1,0.5-0.1
		C76.6,18.3,76.6,18.7,76.7,19.1z M77.8,26.6C77.8,26.6,77.8,26.6,77.8,26.6c-0.9,0.7-2.2,0.7-2.9,1.5c-0.7,0.8-0.4,2.1,0.5,2.6
		c0.2,0.1,0.4,0.2,0.6,0.4c0.3,0.3,0.1,0.9-0.2,1.2c-0.4,0.3-0.8,0.3-1.3,0.3c-0.4,0-0.9,0-1.3,0.2c-0.6,0.3-0.9,0.9-1,1.5
		c-0.3,1.7,1.2,3.3,2.9,3.5c1.7,0.2,3.4-0.6,4.5-1.9c0,0,0,0,0,0c0.2,1.4,0.4,2.7,0.5,4.1c-1.1,0.2-2.3,0.3-3.4,0.5
		c-1.3,0.2-2.8,0.4-3.6,1.4c-0.7,0.8-0.9,2-1.4,3.1c-0.5,1.2-1.4,2.2-2.1,3.3c-2.5,0.1-5.1,0.2-7.7,0.2v-29c4.8,0,9.5-0.4,13.7-1.2
		C76.3,20.7,77.1,23.6,77.8,26.6z M48.2,97.7c0.5-0.9,1.2-1.6,1.8-2.4c0.9-1.2,1.7-2.6,2.2-4.1c0.2-0.5,0.3-1,0.7-1.3
		c0.3-0.3,0.6-0.4,1-0.6c1.7-0.9,2.5-3,2.8-4.9c0.4-1.9,0.5-4,1.5-5.6c0.3-0.5,0.7-1,0.9-1.6c0.2-0.6,0.2-1.3-0.3-1.7
		c-0.2-0.1-0.4-0.2-0.6-0.3c-0.1,0-0.1-0.1-0.2-0.1c1.1,0,2.1,0,3.2,0v24.3c-4.5,0-8.9-0.3-13.3-0.8C48,98.3,48.1,98,48.2,97.7z
		 M61.2,18.8c-1.2,0-2.5,0-3.7-0.1c0-0.2,0.1-0.3,0.1-0.5c0.1-0.6,0.2-1.2,0.7-1.5c0.5-0.5,1.4-0.4,1.9-0.8c0.5-0.4,0.7-1,1-1.7
		V18.8z M61.7,18.8v-5.6c0.9-1.2,2.6-1.9,2.8-3.3c0.2-0.9-0.3-1.9-1-2.5c-0.5-0.5-1.1-0.8-1.8-1.2V0.5c3.5,0.1,6.9,3.1,9.9,8.4
		c1.4,2.4,2.6,5.3,3.7,8.6C71.1,18.4,66.5,18.8,61.7,18.8z M61.2,5.9C61.1,5.9,61.1,5.9,61.2,5.9c-0.7-0.4-1.4-0.8-2-1.3
		c-0.7-0.5-1.7-0.7-2.5-0.5c-0.9,0.2-1.7,0.5-2.5,0.7c0.3-0.3,0.5-0.6,0.8-0.9c2-2.2,4.1-3.3,6.3-3.4V5.9z M61.7,100
		c4.5,0,8.9-0.3,13.2-0.8c-1.8,5-3.8,8.9-6.1,11.7c-2.3,2.8-4.7,4.3-7.2,4.4V100z M61.7,99.4V75.1c6.3,0,12.5-0.4,18.4-1.1
		c-0.9,9.2-2.6,17.6-5,24.5C70.8,99.1,66.3,99.4,61.7,99.4z M61.7,74.5V49c2.5,0,4.9-0.1,7.3-0.2c-0.1,0.2-0.2,0.4-0.3,0.6
		c-1,2.1-0.9,4.6-0.7,6.9c0.3,2.8,1,6,3.5,7.5c1.9,1.1,4.3,0.9,6.5,0.4c1-0.2,1.9-0.4,2.9-0.5c-0.1,3.3-0.3,6.6-0.6,9.8
		C74.3,74.2,68.1,74.5,61.7,74.5z M81.4,63.6c1-0.1,2.1-0.1,3.1,0.2c0.3,0.1,0.7,0.2,0.9,0.5c1.2,1,0,3,0.5,4.5
		c0.3,0.8,1,1.5,1.4,2.2c0.3,0.4,0.4,0.8,0.5,1.3c-2.3,0.4-4.7,0.7-7.1,1C81.1,70.2,81.3,67,81.4,63.6z M102.7,48.2
		c0.5,0.1,0.9,0.3,1.4,0.4c0.2,1.6,0.3,3.2,0.4,4.8C103.6,51.8,103,50.1,102.7,48.2z M92.5,11.5c0.3,0.3,0.6,0.6,0.5,1
		c-0.1,0.3-0.2,0.5-0.4,0.7c-0.5,0.5-0.9,1-1.4,1.4c-0.1,0.1-0.2,0.2-0.3,0.4c-0.4-0.5-0.9-1-1.3-1.6C90.6,12.8,91.6,12.1,92.5,11.5
		C92.5,11.5,92.5,11.5,92.5,11.5z M90.4,15.4c-0.1,0.1-0.3,0.2-0.5,0.3c-0.4,0.3-0.9,0.4-1.3,0.3c-0.5-0.1-0.8-0.6-0.6-1.1
		c0.1-0.3,0.4-0.4,0.5-0.7c0.1-0.1,0.1-0.2,0.1-0.3c0.1-0.1,0.2-0.1,0.4-0.2C89.5,14.3,90,14.8,90.4,15.4z M85.3,11.1
		c-0.9-0.2-1.9-0.5-2.8-0.5c-1,0-1.9,0.2-2.7,0.8c-0.4,0.3-0.7,0.7-1,1.1c-1.1,1.4-1.8,3.2-2.1,4.9c-0.3,0.1-0.5,0.1-0.8,0.2
		c-1.1-3.4-2.4-6.3-3.8-8.8c-2.3-4.1-4.8-6.8-7.4-8C71.5,1.4,78.2,4.2,84.1,9c1,0.8,1.9,1.7,2.9,2.6C86.4,11.4,85.9,11.2,85.3,11.1z
		 M54.5,3.5c-0.5,0.5-0.9,1-1.4,1.6c-0.8,0.3-1.5,0.5-2.2,0.8c-0.8,0.3-1.7,0.8-1.8,1.6c-0.1,0.8,0.5,1.5,1.3,1.9c0,0,0.1,0,0.1,0
		c-0.6,1.1-1.2,2.4-1.7,3.7c-0.6,1.3-1.1,2.8-1.6,4.3c-0.1,0-0.2,0-0.3-0.1c0.2-0.5,0.4-1.1,0.4-1.6c0-0.4-0.1-0.9-0.3-1.3
		c-0.4-1-0.9-2-1.5-3c-0.6-0.9-1.6-1.4-2.7-1.3c-0.9,0.1-1.7,0.3-2.6,0.6c-0.3,0.1-0.6,0.2-0.7,0.4c-0.3,0.4-0.3,0.9,0,1.3
		c0.2,0.4,0.6,0.7,1,1c0.8,0.6,1.5,1.2,2.3,1.8c0.2,0.2,0.4,0.3,0.5,0.6c0.1,0.2,0,0.4-0.1,0.6c-0.4-0.1-0.8-0.2-1.2-0.3
		c-2.9-0.8-5.4-1.8-7.5-2.9c3.7-4,7.9-7.2,12.4-9.3c3.7-1.8,7.6-2.9,11.6-3.3C56.9,1.3,55.7,2.2,54.5,3.5z M33.9,13.7
		C33.9,13.7,33.9,13.7,33.9,13.7C33.9,13.7,33.9,13.7,33.9,13.7C33.9,13.7,33.9,13.7,33.9,13.7z M25.3,62.5
		c-1.1-1.6-2.4-3.4-3.6-4.3c-1.1-0.9-2.4-1.8-3.4-2.8c0.1-1.9,0.2-3.7,0.4-5.6c0.8-0.1,1.7,0.2,2.4,0.7c1.1,0.9,1.8,2.2,2.6,3.4
		c0.7,0.2,1.4-0.6,1.5-1.3c0.1-0.8,0-1.5,0.2-2.3c0.6-1.8,3-2.2,4.1-3.7c0.3-0.4,0.5-1,0.7-1.5c3.6,1,7.4,1.8,11.5,2.5
		c-0.2,3.4-0.3,6.9-0.3,10.4c0,2.8,0.1,5.5,0.2,8.2c-2.2-1.1-4.7-1.7-7.1-2c-0.8-0.1-1.7,0-2.5,0.4c-1.3,0.6-2.7,1.5-3.4,2.2
		c-0.5,0.5-0.8,1.2-0.7,1.9c0.2,0.8,0.9,1.3,1,2.1c0,0.1,0,0.2,0,0.4c-1.9-0.4-3.7-0.9-5.4-1.4c-1.6-0.5-3.1-0.9-4.5-1.5
		c-0.3-2.4-0.5-4.9-0.6-7.4c1.6,0.9,2.7,2,3.5,2.9c0.3,0.4,0.7,0.7,1.1,1C24.5,65.8,26.3,64,25.3,62.5z M23.3,70.3
		c1.7,0.5,3.5,1,5.3,1.4c-0.2,0.4-0.6,0.8-0.8,1.3c-0.5,1-0.2,2.2,0.1,3.3c0.5,1.7,1,3.5,2.2,4.9c1.4,1.6,3.4,2.3,4.9,3.7
		c1.7,1.6,2.7,3.9,3.4,6.1c0.7,2.2,1.2,4.4,2.2,6.5c-4.3-0.8-8.3-1.9-12-3.2c-0.2-0.1-0.5-0.2-0.7-0.2c-2.6-4.2-4.7-8.8-6.3-13.8
		c-1.2-3.7-2-7.5-2.6-11.4C20.4,69.4,21.8,69.8,23.3,70.3z M28.5,94.9c3.9,1.3,8.1,2.4,12.6,3.3c1.4,2.4,3.5,4.4,5.6,6.2
		c0.7,0.6,1.4,1.1,2.2,1.2c0.3,0,0.7,0,1-0.2c2.5,5.1,5.3,8.4,8.4,9.8c-4.7-0.5-9.2-1.9-13.6-4.3c-5.1-2.9-9.8-7-13.7-12.3
		C30.1,97.3,29.2,96.1,28.5,94.9C28.4,94.8,28.4,94.8,28.5,94.9z M75.6,99.1c1.2-0.1,2.4-0.3,3.6-0.5c5.5-0.9,10.6-2.1,15.3-3.7
		c0,0,0,0,0,0c-0.8,1.3-1.7,2.5-2.6,3.7c-4,5.2-8.6,9.4-13.7,12.2c-4.3,2.4-8.9,3.9-13.5,4.3C68.8,113.2,72.6,107.7,75.6,99.1z
		 M94.3,94.3c-4.7,1.6-9.8,2.9-15.2,3.7c-1.1,0.2-2.2,0.3-3.3,0.5c2.4-7,4-15.4,4.9-24.5c2.5-0.3,4.9-0.6,7.2-1.1
		c0.1,1.2-0.1,2.4-0.5,3.6c-0.6,1.8-1.4,3.5-1.4,5.4c0,2.6,1.5,5.1,1.7,7.6c0.1,1,1,1.8,2.1,1.7c3-0.3,5.8-2,7.4-4.5
		c0.5-0.9,0.9-1.8,1.5-2.6c0.5-0.7,1.2-1.2,1.8-1.8c-1.5,4.3-3.4,8.2-5.6,11.8C94.7,94.1,94.5,94.2,94.3,94.3z M103.6,70.5
		c-0.1,0.5-0.2,0.9-0.3,1.4C103.3,71.5,103.4,71,103.6,70.5z M106.1,66.1c1.8-2.5,3.3-5.2,4.5-8c0.1-0.2,0.2-0.4,0.1-0.6
		c-0.1-0.6-1-0.4-1.6-0.3c-1.7,0.4-3.2-1.2-4.1-2.7c0,0,0,0,0,0c-0.1-1.9-0.2-3.8-0.5-5.7c1.8,0.8,3.4,2.1,4.6,3.8
		c0.3,0.4,0.9,0.6,1.3,0.3c0.4-0.3,0.9-0.5,1.3-0.7c0.4-0.2,0.6-0.6,0.5-1.1c-0.4-2.3-1.5-4.5-3.1-6.3c1,0.1,2,0.2,3,0.6
		c0.9,0.4,1.8,1.1,2.2,2c0.2,0.5,0.2,1,0.4,1.5c0.3,0.9,0.1,1.8,0.7,2.5c1.8,2.3-2.2,6.3,3.1,6.6c-1.8,3.6-6.6,7-13.8,9.8
		C105.3,67.3,105.7,66.7,106.1,66.1z M91.6,9.1c-0.3,0.6-0.1,1.2,0.1,1.6c0.1,0.1,0.2,0.3,0.3,0.4c-0.8,0.7-1.8,1.3-2.9,2
		c-1.5-1.6-3-3.1-4.7-4.4c-4.2-3.5-8.8-5.9-13.6-7.3C78.1,2.5,85.2,5.1,91.6,9.1z M41.8,4c3.4-1.2,6.8-2.1,10.3-2.7
		c-1.9,0.6-3.8,1.3-5.7,2.2c-4.6,2.2-8.8,5.4-12.7,9.6c-1.6-0.9-3-1.9-4-3C33.6,7.6,37.6,5.5,41.8,4z M13.1,27
		c-0.1,0.6-0.2,1.1-0.2,1.7c-0.1,1.5-0.2,3.1-0.5,4.6c-0.1,0.6-0.3,1.2-0.5,1.7c-0.8-0.8-1.4-1.7-1.9-2.5C11,30.6,12,28.7,13.1,27z
		 M9.7,33.1c0.5,0.9,1.2,1.7,1.9,2.5c-0.5,1.4-1.2,2.7-1.8,4.1c-0.8,2.1-1.3,4.6-0.5,6.7c0.6,1.5,1.8,2.6,2.5,4.1
		c1.2,2.2,1.2,4.9,1.8,7.4c0.1,0.4,0.2,0.8,0.5,1.1c0.4,0.4,0.9,0.6,1.4,0.8c0.8,0.3,1.5,0.6,2.1,0.9c0.1,2.5,0.3,5,0.6,7.5
		c-7.5-2.8-12.5-6.3-14.3-10.1c0,0,0,0,0,0C4.1,49.2,6,40.8,9.7,33.1z M4.1,59.2c1.2,2,3.4,3.9,6.3,5.7c2.3,1.4,4.9,2.6,8,3.8
		c0.6,4,1.5,8,2.7,11.8c1.5,4.8,3.5,9.3,5.9,13.3c-8.3-3.1-14.6-7.2-17.6-11.6c-0.3-0.6-0.6-1.3-0.9-1.9C5.8,73.5,4.2,66.5,4.1,59.2
		z M39.1,110.8c-6.8-2.9-13-7-18.2-12.3c-4.2-4.2-7.6-8.8-10.3-14c3.6,3.9,9.5,7.4,17,10.1c0.9,1.5,1.9,2.9,2.9,4.3
		c4,5.3,8.7,9.5,13.9,12.4c2.5,1.4,5.1,2.5,7.7,3.2C47.6,113.8,43.3,112.5,39.1,110.8z M101.9,98.5c-5.3,5.2-11.4,9.4-18.2,12.2
		c-4.2,1.8-8.5,3-12.9,3.7c2.6-0.8,5.2-1.8,7.7-3.2c5.2-2.9,9.9-7.1,13.9-12.4c1.1-1.4,2.1-2.9,3-4.4c7.5-2.7,13.4-6.2,17-10.1
		C109.6,89.7,106.1,94.4,101.9,98.5z M114.3,80.4c-0.3,0.6-0.5,1.2-0.8,1.8c-3.1,4.4-9.3,8.5-17.6,11.6c2.2-3.8,4.1-7.9,5.6-12.3
		c1.2-1.1,2.3-2.4,2.5-4c0.2-1.2-0.2-2.4-0.4-3.5c0.4-1.7,0.7-3.5,0.9-5.2c3.1-1.1,5.8-2.4,8-3.8c3-1.8,5.1-3.7,6.3-5.7
		C118.7,66.5,117.1,73.7,114.3,80.4z"/>
	<path d="M27.3,58.1c1.7,0.7,3.7,0.3,5.4,1.1c0.4,0.2,0.8,0.4,1.2,0.6c0.4,0.2,0.9,0.2,1.3,0.1c0.4-0.2,0.7-0.6,0.5-1
		c-0.1-0.2-0.2-0.3-0.3-0.5c-1.1-1.2-3.5-2.5-4.8-3.2c-0.5-0.2-1-0.4-1.5-0.6c-0.5-0.1-0.9-0.3-1.3-0.1c-0.9,0.2-1.2,1.3-1.3,2.2
		c0,0.2-0.1,0.5,0,0.7C26.5,57.6,26.9,57.9,27.3,58.1z"/>
	<path d="M66.9,13.8c-0.2,0.1-0.4,0.2-0.5,0.3c-0.4,0.4-0.8,0.8-1.4,0.8c-0.3,0-0.5-0.1-0.8,0c-0.3,0.1-0.5,0.5-0.5,0.8
		c0,0.4,0.2,0.7,0.5,0.9c0.5,0.6,1.3,0.9,2,1c0.8,0.1,1.6-0.2,2.2-0.6c0.3-0.3,0.9-0.8,0.7-2C68.8,14.1,67.8,13.5,66.9,13.8z"/>
</g>
</svg>
