<?xml version="1.0" encoding="utf-8"?>
<!-- Generator: Adobe Illustrator 27.9.0, SVG Export Plug-In . SVG Version: 6.00 Build 0)  -->
<svg version="1.1" id="Layer_1" xmlns="http://www.w3.org/2000/svg" xmlns:xlink="http://www.w3.org/1999/xlink" x="0px" y="0px"
	 viewBox="0 0 2383 2500" style="enable-background:new 0 0 2383 2500;" xml:space="preserve">
<style type="text/css">
	.st0{stroke:#000000;stroke-width:2;stroke-miterlimit:10;}
</style>
<g>
	<path class="st0" d="M1191.5,19.6C534.5,19.6,0,554.1,0,1211.1c0,299,111.2,585,313.2,805.2l10.6,11.6l101.7,0.3v-655.9h-71.9
		v581.6c-181.9-205-281.8-468-281.8-742.7C71.9,593.8,574.2,91.6,1191.5,91.6s1119.6,502.3,1119.6,1119.6
		c0,271.9-97.7,531.8-275.7,735.8v-574.7h-71.9v116.4c-60.9-77.6-155.5-127.7-261.6-127.7c-183.3,0-332.5,149.1-332.5,332.5
		s149.1,332.5,332.5,332.5c106.1,0,200.7-50,261.6-127.7v138.8l91-4.4l10-10.7c205.3-221,318.5-509,318.5-810.9
		C2383,554.1,1848.5,19.6,1191.5,19.6L1191.5,19.6z M1701.9,1956.1c-144.8,0-262.6-117.8-262.6-262.6s117.8-262.6,262.6-262.6
		c137.2,0,250.2,105.9,261.6,240.2v44.8C1952.2,1850.3,1839.2,1956.1,1701.9,1956.1z"/>
	<path class="st0" d="M1152.5,1389.5c-18.2,12.1-34.7,27.6-49.2,46.1v-63.4h-71.9V2007h71.9v-381.9l1.3,0.2
		c13.6-86,43.9-146.8,87.8-176c30.9-20.5,69.6-25.3,115-14.1l17.1-69.8C1258.6,1349.4,1200.8,1357.4,1152.5,1389.5L1152.5,1389.5z
		 M747.8,1181c15.1-11.6,34.4-15.6,53.5-10.6c20.2,4.8,34.6,14.1,48.6,23.1c4,2.6,7.8,5,11.5,7.2l37-61.7c-3.1-1.8-6.3-3.9-9.6-6
		c-16.3-10.5-38.8-24.9-70.1-32.4c-40.2-10.5-82.1-1.9-114.9,23.4s-51.7,63.7-51.7,105.2v135h-74.6v71.9h74.6v570.8H724v-570.8
		h143.1v-71.9H724v-135C723.9,1210.4,732.7,1192.5,747.8,1181L747.8,1181z"/>
	<circle class="st0" cx="383.6" cy="1215.2" r="71.1"/>
	<path class="st0" d="M107.2,2181.8V2296H92v-114.2H107.2z M133.5,2296v-114.2h20c16.4,26.7,52,83.5,58.4,95.9h0.2
		c-1.1-14.6-1-32.7-1-51.3v-44.6h14.3V2296h-18.8c-15.1-24.8-52.3-85.9-59.4-98.7H147c0.8,13,0.8,32.4,0.8,53v45.8h-14.4h0.1V2296z
		 M275.6,2194.8h-36.9v-13h89.1v13h-36.9V2296h-15.3L275.6,2194.8L275.6,2194.8z M411.2,2242.6h-56.8v40.4h62.4l-1.9,13h-75.3
		v-114.2H414v13h-59.5v34.9h56.8v12.9H411.2z M447.8,2245.7v50.3h-15v-114.2h44.6c23.5,0,36,12.7,36,30.6c0,14.8-8.5,23.9-19.5,26.9
		c9.3,2.5,17.4,9.5,17.4,29.3v4.9c0,7.9-0.4,17.8,1.6,22.6h-14.7c-2.1-4.9-1.9-13.8-1.9-24.5v-2.4c0-16.3-4.6-23.4-25.1-23.4
		L447.8,2245.7z M447.8,2233h24.9c17.5,0,25.1-6.6,25.1-19.4c0-12.1-7.9-19-23.4-19h-26.5L447.8,2233z M534.5,2296v-114.2h20
		c16.4,26.7,52,83.5,58.4,95.9h0.2c-1.1-14.6-1-32.7-1-51.3v-44.6h14.3V2296h-18.8c-15.1-24.8-52.3-85.9-59.4-98.7h-0.3
		c0.8,13,0.8,32.4,0.8,53v45.8h-14.4h0.2V2296z M667.9,2261.8l-12.3,34.2h-15.1l40.7-114.2h18.7l42.4,114.2h-16.2l-12.6-34.2H667.9
		L667.9,2261.8z M709.6,2248.8c-10.9-30.1-16.9-46-19.3-54.7h-0.2c-2.8,9.7-9.5,29-18.3,54.7H709.6L709.6,2248.8z M765.5,2194.8
		h-36.9v-13h89.1v13h-36.9V2296h-15.3L765.5,2194.8L765.5,2194.8z M844.5,2181.8V2296h-15.2v-114.2H844.5z M969.6,2238.3
		c0,31.4-17.6,59.4-53.6,59.4c-33.6,0-52.4-26-52.4-58.7s19.2-58.7,53.7-58.7C949.5,2180.2,969.6,2204.4,969.6,2238.3L969.6,2238.3z
		 M879.4,2238.4c0,24.7,12.6,46.3,37.2,46.3c26.5,0,37.1-21.8,37.1-46.3c0-24.4-12-45.4-37.1-45.4S879.4,2214.1,879.4,2238.4
		L879.4,2238.4z M988.7,2296v-114.2h20c16.4,26.7,52,83.5,58.4,95.9h0.3c-1.1-14.6-1-32.7-1-51.3v-44.6h14.3V2296h-18.8
		c-15.1-24.8-52.3-85.9-59.4-98.7h-0.2c0.8,13,0.8,32.4,0.8,53v45.8h-14.4V2296z M1122.2,2261.8l-12.3,34.2h-15.1l40.7-114.2h18.7
		l42.4,114.2h-16.2l-12.6-34.2H1122.2L1122.2,2261.8z M1163.9,2248.8c-10.9-30.1-16.8-46-19.3-54.7h-0.2c-2.8,9.7-9.5,29-18.3,54.7
		H1163.9L1163.9,2248.8z M1210,2181.8h15.2V2283h59.6l-2.1,13H1210V2181.8z M1334.6,2181.8h73.4v13h-58.5v37.1h54.8v13h-54.8v51.2
		h-14.9V2181.8z M1437.7,2245.7v50.3h-15v-114.2h44.6c23.5,0,36,12.7,36,30.6c0,14.8-8.5,23.9-19.5,26.9c9.3,2.5,17.4,9.5,17.4,29.3
		v4.9c0,7.9-0.4,17.8,1.6,22.6h-14.7c-2.1-4.9-1.9-13.8-1.9-24.5v-2.4c0-16.3-4.6-23.4-25.1-23.4L1437.7,2245.7z M1437.7,2233h24.9
		c17.5,0,25.1-6.6,25.1-19.4c0-12.1-7.9-19-23.4-19h-26.5L1437.7,2233L1437.7,2233z M1541.5,2261.8l-12.3,34.2h-15.1l40.7-114.2
		h18.7l42.4,114.2h-16.2l-12.6-34.2H1541.5L1541.5,2261.8z M1583.2,2248.8c-10.9-30.1-16.8-46-19.3-54.7h-0.2
		c-2.8,9.7-9.5,29-18.3,54.7H1583.2L1583.2,2248.8z M1720.3,2296h-11.6c-0.8-2.2-1.2-7.3-1.4-15.5c-4.9,8.1-14.8,17-35.5,17
		c-32.9,0-50.5-25-50.5-57.5c0-34.2,18.8-59.9,53.2-59.9c26.5,0,43.3,14.4,46.5,34.8h-15.2c-3.9-12.8-13.1-22.2-31.7-22.2
		c-26.5,0-37.1,21.2-37.1,46.6c0,23.5,10.6,45.5,36.4,45.5s31.9-17,31.9-36.3v-1.2h-32.2v-13h46.9v61.7L1720.3,2296z M1758.5,2245.7
		v50.3h-15v-114.2h44.6c23.5,0,36,12.7,36,30.6c0,14.8-8.5,23.9-19.5,26.9c9.3,2.5,17.4,9.5,17.4,29.3v4.9c0,7.9-0.4,17.8,1.6,22.6
		h-14.7c-2.1-4.9-1.9-13.8-1.9-24.5v-2.4c0-16.3-4.6-23.4-25.1-23.4L1758.5,2245.7z M1758.5,2233h24.9c17.5,0,25.1-6.6,25.1-19.4
		c0-12.1-7.9-19-23.4-19h-26.5L1758.5,2233z M1862.2,2261.8l-12.3,34.2h-15.1l40.7-114.2h18.7l42.4,114.2h-16.2l-12.6-34.2H1862.2
		L1862.2,2261.8z M1903.9,2248.8c-10.9-30.1-16.8-46-19.3-54.7h-0.2c-2.8,9.7-9.5,29-18.3,54.7H1903.9L1903.9,2248.8z M1950,2296
		v-114.2h20c16.4,26.7,52,83.5,58.4,95.9h0.3c-1.1-14.6-1-32.7-1-51.3v-44.6h14.3V2296h-18.8c-15.1-24.8-52.3-85.9-59.4-98.7h-0.3
		c0.8,13,0.8,32.4,0.8,53v45.8H1950V2296z M2158.1,2263.6c-5.1,19.4-19.5,33.8-45.5,33.8c-34.2,0-51.4-25.9-51.4-58.2
		s17.2-59.1,52-59.1c26.9,0,41.6,15.3,45,34.4H2143c-4.1-12.5-12.3-21.8-30.4-21.8c-25.2,0-35.5,22.9-35.5,46s9.8,46,36.1,46
		c17.6,0,25.4-10.1,29.6-21.2L2158.1,2263.6L2158.1,2263.6z M2247.5,2242.6h-56.8v40.4h62.4l-1.9,13h-75.3v-114.2h74.4v13h-59.5
		v34.9h56.8L2247.5,2242.6L2247.5,2242.6z M678.4,2444.4l-12.3,34.2H651l40.7-114.2h18.7l42.4,114.2h-16.2l-12.6-34.2H678.4
		L678.4,2444.4z M720.1,2431.5c-10.9-30.1-16.9-46-19.3-54.7h-0.2c-2.8,9.7-9.5,29-18.3,54.7H720.1L720.1,2431.5z M776.2,2446.9
		c3.1,13.7,12.5,21.1,29,21.1c17.8,0,24.9-8.3,24.9-19.2c0-11.5-5.6-17.8-28.5-23.4c-26.9-6.5-36.2-15.8-36.2-31.8
		c0-17,12.5-30.8,38-30.8c27.2,0,38.4,15.7,39.9,30.7h-15.4c-2.1-10.1-8.4-18.5-25-18.5c-13.9,0-21.7,6.3-21.7,17.2
		s6.4,15,26.5,19.8c32.6,8,38.3,20.6,38.3,35.2c0,18.4-13.6,32.9-41.6,32.9c-27.9,0-41.1-15.7-43.4-33.2H776.2L776.2,2446.9z
		 M873.7,2446.9c3.1,13.7,12.5,21.1,29,21.1c17.8,0,24.9-8.3,24.9-19.2c0-11.5-5.6-17.8-28.5-23.4c-26.9-6.5-36.2-15.8-36.2-31.8
		c0-17,12.5-30.8,38-30.8c27.2,0,38.4,15.7,39.9,30.7h-15.4c-2.1-10.1-8.4-18.5-25-18.5c-13.9,0-21.7,6.3-21.7,17.2
		s6.4,15,26.5,19.8c32.6,8,38.3,20.6,38.3,35.2c0,18.4-13.6,32.9-41.6,32.9c-27.9,0-41.1-15.7-43.4-33.2H873.7L873.7,2446.9z
		 M1063.2,2421c0,31.4-17.6,59.4-53.6,59.4c-33.6,0-52.4-26-52.4-58.7s19.2-58.7,53.7-58.7C1043.1,2362.9,1063.2,2387.1,1063.2,2421
		L1063.2,2421z M973.1,2421.1c0,24.7,12.6,46.3,37.2,46.3c26.5,0,37.1-21.8,37.1-46.3c0-24.4-12-45.4-37.1-45.4
		S973,2396.7,973.1,2421.1L973.1,2421.1z M1174.5,2446.3c-5.1,19.4-19.5,33.8-45.5,33.8c-34.2,0-51.4-25.9-51.4-58.2
		s17.3-59.1,52-59.1c26.9,0,41.6,15.3,45,34.4h-15.2c-4.1-12.5-12.3-21.8-30.4-21.8c-25.2,0-35.5,22.9-35.5,46s9.8,46,36.1,46
		c17.6,0,25.4-10.1,29.6-21.2L1174.5,2446.3L1174.5,2446.3z M1209,2364.5v114.2h-15.2v-114.2H1209z M1252,2444.4l-12.3,34.2h-15.1
		l40.7-114.2h18.7l42.4,114.2h-16.2l-12.6-34.2H1252L1252,2444.4z M1293.7,2431.5c-10.9-30.1-16.8-46-19.3-54.7h-0.2
		c-2.8,9.7-9.5,29-18.3,54.7H1293.7L1293.7,2431.5z M1351.1,2377.5h-36.9v-13h89.1v13h-36.9v101.2h-15.3L1351.1,2377.5
		L1351.1,2377.5z M1431.8,2364.5v114.2h-15.2v-114.2H1431.8z M1558.6,2421c0,31.4-17.6,59.4-53.6,59.4c-33.6,0-52.4-26-52.4-58.7
		s19.2-58.7,53.7-58.7C1538.5,2362.9,1558.6,2387.1,1558.6,2421L1558.6,2421z M1468.4,2421.1c0,24.7,12.6,46.3,37.2,46.3
		c26.5,0,37.1-21.8,37.1-46.3c0-24.4-12-45.4-37.1-45.4S1468.3,2396.7,1468.4,2421.1L1468.4,2421.1z M1579.3,2478.7v-114.2h20
		c16.4,26.7,52,83.5,58.4,95.9h0.3c-1.1-14.6-1-32.7-1-51.3v-44.6h14.3v114.2h-18.8c-15.1-24.8-52.3-85.9-59.4-98.7h-0.2
		c0.8,13,0.8,32.4,0.8,53v45.8L1579.3,2478.7L1579.3,2478.7z"/>
</g>
</svg>
